# MagicaVoxel @ Ephtracy

# group
o 

# material
mtllib Idle1.mtl
usemtl palette

# normals
vn -1 0 0
vn 1 0 0
vn 0 0 1
vn 0 0 -1
vn 0 -1 0
vn 0 1 0

# texcoords
vt 0.0253906 0.5
vt 0.0683594 0.5
vt 0.333984 0.5
vt 0.369141 0.5
vt 0.771484 0.5
vt 0.791016 0.5
vt 0.794922 0.5
vt 0.845703 0.5
vt 0.849609 0.5
vt 0.853516 0.5
vt 0.861328 0.5
vt 0.904297 0.5
vt 0.958984 0.5
vt 0.962891 0.5
vt 0.966797 0.5

# verts
v -0.5 0.9 0
v -0.5 0.9 -0.1
v -0.5 1 0
v -0.5 1 -0.1
v -0.4 0.3 0
v -0.4 0.3 -0.1
v -0.4 0.4 0
v -0.4 0.4 -0.1
v -0.4 0.7 0
v -0.4 0.7 -0.1
v -0.4 0.9 0
v -0.4 0.9 -0.1
v -0.3 0.4 0
v -0.3 0.4 -0.1
v -0.3 0.5 0
v -0.3 0.5 -0.1
v -0.3 0.6 0
v -0.3 0.6 -0.2
v -0.3 0.7 0.2
v -0.3 0.7 0
v -0.3 0.7 -0.1
v -0.3 0.9 0.2
v -0.3 0.9 0.1
v -0.3 0.9 0
v -0.3 0.9 -0.1
v -0.3 1 0.1
v -0.3 1 -0.2
v -0.2 0 0
v -0.2 0 -0.1
v -0.2 0.1 0
v -0.2 0.1 -0.1
v -0.2 0.2 0.1
v -0.2 0.2 0
v -0.2 0.2 -0.1
v -0.2 0.2 -0.2
v -0.2 0.3 0.1
v -0.2 0.3 0
v -0.2 0.3 -0.1
v -0.2 0.3 -0.2
v -0.2 0.4 0
v -0.2 0.4 -0.1
v -0.2 0.5 0.1
v -0.2 0.5 0
v -0.2 0.5 -0.1
v -0.2 0.5 -0.2
v -0.2 0.6 0.2
v -0.2 0.6 0.1
v -0.2 0.6 0
v -0.2 0.6 -0.1
v -0.2 0.6 -0.2
v -0.2 0.6 -0.3
v -0.2 0.7 0.2
v -0.2 0.7 0
v -0.2 0.7 -0.2
v -0.2 0.7 -0.3
v -0.2 0.8 -0.2
v -0.2 0.8 -0.3
v -0.2 0.9 0.2
v -0.2 0.9 0.1
v -0.2 1 0.2
v -0.2 1 0.1
v -0.2 1 0
v -0.2 1 -0.2
v -0.2 1 -0.3
v -0.2 1.1 0.1
v -0.2 1.1 0
v -0.2 1.1 -0.2
v -0.1 1 0.2
v -0.1 1 0.1
v -0.1 1 -0.2
v -0.1 1 -0.3
v -0.1 1.1 0.2
v -0.1 1.1 0.1
v -0.1 1.1 0
v -0.1 1.1 -0.1
v -0.1 1.1 -0.2
v -0.1 1.1 -0.3
v -0.1 1.2 0.1
v -0.1 1.2 0
v -0.1 1.2 -0.1
v -0.1 1.2 -0.2
v -0.1 1.3 0
v -0.1 1.3 -0.1
v -0.1 1.3 -0.2
v -0.1 1.3 -0.3
v -0.1 1.4 -0.1
v -0.1 1.4 -0.3
v 0.1 0 0
v 0.1 0 -0.1
v 0.1 0.1 0
v 0.1 0.1 -0.1
v 0.1 0.2 0
v 0.1 0.2 -0.1
v 0.1 0.4 0
v 0.1 0.4 -0.1
v 0.1 0.5 0
v 0.1 0.5 -0.1
v 0.3 0.3 0
v 0.3 0.3 -0.1
v 0.3 0.4 0
v 0.3 0.4 -0.1
v 0.4 0.9 0
v 0.4 0.9 -0.1
v 0.4 1 0
v 0.4 1 -0.1
v -0.4 0.9 0
v -0.4 0.9 -0.1
v -0.4 1 0
v -0.4 1 -0.1
v -0.3 0.3 0
v -0.3 0.3 -0.1
v -0.3 0.4 0
v -0.3 0.4 -0.1
v -0.1 0 0
v -0.1 0 -0.1
v -0.1 0.1 0
v -0.1 0.1 -0.1
v -0.1 0.2 0
v -0.1 0.2 -0.1
v -0.1 0.4 0
v -0.1 0.4 -0.1
v -0.1 0.5 0
v -0.1 0.5 -0.1
v 0 1.2 -0.1
v 0 1.2 -0.2
v 0 1.3 -0.1
v 0 1.3 -0.2
v 0 1.3 -0.3
v 0 1.4 -0.1
v 0 1.4 -0.3
v 0.1 1 0.2
v 0.1 1 0.1
v 0.1 1 -0.2
v 0.1 1 -0.3
v 0.1 1.1 0.2
v 0.1 1.1 0.1
v 0.1 1.1 0
v 0.1 1.1 -0.2
v 0.1 1.1 -0.3
v 0.1 1.2 0.1
v 0.1 1.2 0
v 0.1 1.2 -0.1
v 0.1 1.2 -0.2
v 0.1 1.3 0
v 0.1 1.3 -0.1
v 0.2 0 0
v 0.2 0 -0.1
v 0.2 0.1 0
v 0.2 0.1 -0.1
v 0.2 0.2 0.1
v 0.2 0.2 0
v 0.2 0.2 -0.1
v 0.2 0.2 -0.2
v 0.2 0.3 0.1
v 0.2 0.3 0
v 0.2 0.3 -0.1
v 0.2 0.3 -0.2
v 0.2 0.4 0
v 0.2 0.4 -0.1
v 0.2 0.5 0
v 0.2 0.5 -0.1
v 0.2 0.6 0.2
v 0.2 0.6 0.1
v 0.2 0.6 -0.2
v 0.2 0.6 -0.3
v 0.2 0.7 0.2
v 0.2 0.7 0.1
v 0.2 0.7 -0.2
v 0.2 0.7 -0.3
v 0.2 0.9 0.2
v 0.2 0.9 0.1
v 0.2 0.9 -0.2
v 0.2 0.9 -0.3
v 0.2 1 0.2
v 0.2 1 0.1
v 0.2 1 -0.2
v 0.2 1 -0.3
v 0.2 1.1 0.1
v 0.2 1.1 -0.2
v 0.3 0.4 0
v 0.3 0.4 -0.1
v 0.3 0.5 0
v 0.3 0.5 -0.1
v 0.3 0.6 0.1
v 0.3 0.6 -0.2
v 0.3 0.7 0.2
v 0.3 0.7 0.1
v 0.3 0.7 0
v 0.3 0.7 -0.1
v 0.3 0.7 -0.2
v 0.3 0.7 -0.3
v 0.3 0.9 0.2
v 0.3 0.9 0.1
v 0.3 0.9 0
v 0.3 0.9 -0.1
v 0.3 0.9 -0.2
v 0.3 0.9 -0.3
v 0.3 1 0.1
v 0.3 1 -0.2
v 0.4 0.3 0
v 0.4 0.3 -0.1
v 0.4 0.4 0
v 0.4 0.4 -0.1
v 0.4 0.7 0
v 0.4 0.7 -0.1
v 0.4 0.9 0
v 0.4 0.9 -0.1
v 0.5 0.9 0
v 0.5 0.9 -0.1
v 0.5 1 0
v 0.5 1 -0.1
v -0.3 0.7 0.2
v -0.3 0.9 0.2
v -0.2 0.6 0.2
v -0.2 0.7 0.2
v -0.2 0.8 0.2
v -0.2 0.9 0.2
v -0.2 1 0.2
v -0.1 0.7 0.2
v -0.1 0.8 0.2
v -0.1 0.9 0.2
v -0.1 1 0.2
v -0.1 1.1 0.2
v 0 0.6 0.2
v 0 0.7 0.2
v 0 0.8 0.2
v 0 0.9 0.2
v 0.1 0.6 0.2
v 0.1 0.7 0.2
v 0.1 0.8 0.2
v 0.1 0.9 0.2
v 0.1 1 0.2
v 0.1 1.1 0.2
v 0.2 0.6 0.2
v 0.2 0.7 0.2
v 0.2 0.8 0.2
v 0.2 0.9 0.2
v 0.2 1 0.2
v 0.3 0.7 0.2
v 0.3 0.9 0.2
v -0.3 0.9 0.1
v -0.3 1 0.1
v -0.2 0.2 0.1
v -0.2 0.3 0.1
v -0.2 0.5 0.1
v -0.2 0.6 0.1
v -0.2 0.9 0.1
v -0.2 1 0.1
v -0.2 1.1 0.1
v -0.1 0.3 0.1
v -0.1 0.4 0.1
v -0.1 0.5 0.1
v -0.1 0.6 0.1
v -0.1 1 0.1
v -0.1 1.1 0.1
v -0.1 1.2 0.1
v 0 0.3 0.1
v 0 0.4 0.1
v 0 0.5 0.1
v 0 0.6 0.1
v 0 1.1 0.1
v 0 1.2 0.1
v 0.1 0.5 0.1
v 0.1 0.6 0.1
v 0.1 1 0.1
v 0.1 1.1 0.1
v 0.1 1.2 0.1
v 0.2 0.2 0.1
v 0.2 0.3 0.1
v 0.2 0.6 0.1
v 0.2 0.7 0.1
v 0.2 0.9 0.1
v 0.2 1 0.1
v 0.2 1.1 0.1
v 0.3 0.6 0.1
v 0.3 0.7 0.1
v 0.3 0.9 0.1
v 0.3 1 0.1
v -0.5 0.9 0
v -0.5 1 0
v -0.4 0.3 0
v -0.4 0.4 0
v -0.4 0.7 0
v -0.4 0.9 0
v -0.4 1 0
v -0.3 0.3 0
v -0.3 0.4 0
v -0.3 0.5 0
v -0.3 0.6 0
v -0.3 0.7 0
v -0.3 0.9 0
v -0.2 0 0
v -0.2 0.1 0
v -0.2 0.2 0
v -0.2 0.4 0
v -0.2 0.5 0
v -0.2 0.6 0
v -0.2 0.7 0
v -0.1 0 0
v -0.1 0.1 0
v -0.1 0.2 0
v -0.1 1.2 0
v -0.1 1.3 0
v 0 1.2 0
v 0 1.3 0
v 0.1 0 0
v 0.1 0.1 0
v 0.1 0.2 0
v 0.1 1.2 0
v 0.1 1.3 0
v 0.2 0 0
v 0.2 0.1 0
v 0.2 0.2 0
v 0.2 0.4 0
v 0.2 0.5 0
v 0.3 0.3 0
v 0.3 0.4 0
v 0.3 0.5 0
v 0.3 0.7 0
v 0.3 0.9 0
v 0.4 0.3 0
v 0.4 0.4 0
v 0.4 0.7 0
v 0.4 0.9 0
v 0.4 1 0
v 0.5 0.9 0
v 0.5 1 0
v -0.1 0.4 -0.1
v -0.1 0.5 -0.1
v -0.1 1.3 -0.1
v -0.1 1.4 -0.1
v 0 1.3 -0.1
v 0 1.4 -0.1
v 0.1 0.4 -0.1
v 0.1 0.5 -0.1
v -0.1 0.4 0
v -0.1 0.5 0
v 0.1 0.4 0
v 0.1 0.5 0
v -0.5 0.9 -0.1
v -0.5 1 -0.1
v -0.4 0.3 -0.1
v -0.4 0.4 -0.1
v -0.4 0.7 -0.1
v -0.4 0.9 -0.1
v -0.4 1 -0.1
v -0.3 0.3 -0.1
v -0.3 0.4 -0.1
v -0.3 0.5 -0.1
v -0.3 0.7 -0.1
v -0.3 0.9 -0.1
v -0.2 0 -0.1
v -0.2 0.1 -0.1
v -0.2 0.2 -0.1
v -0.2 0.4 -0.1
v -0.2 0.5 -0.1
v -0.1 0 -0.1
v -0.1 0.1 -0.1
v -0.1 0.2 -0.1
v 0 1.2 -0.1
v 0 1.3 -0.1
v 0.1 0 -0.1
v 0.1 0.1 -0.1
v 0.1 0.2 -0.1
v 0.1 1.2 -0.1
v 0.1 1.3 -0.1
v 0.2 0 -0.1
v 0.2 0.1 -0.1
v 0.2 0.2 -0.1
v 0.2 0.4 -0.1
v 0.2 0.5 -0.1
v 0.3 0.3 -0.1
v 0.3 0.4 -0.1
v 0.3 0.5 -0.1
v 0.3 0.7 -0.1
v 0.3 0.9 -0.1
v 0.4 0.3 -0.1
v 0.4 0.4 -0.1
v 0.4 0.7 -0.1
v 0.4 0.9 -0.1
v 0.4 1 -0.1
v 0.5 0.9 -0.1
v 0.5 1 -0.1
v -0.3 0.6 -0.2
v -0.3 1 -0.2
v -0.2 0.2 -0.2
v -0.2 0.3 -0.2
v -0.2 0.5 -0.2
v -0.2 0.6 -0.2
v -0.2 0.7 -0.2
v -0.2 0.8 -0.2
v -0.2 1 -0.2
v -0.2 1.1 -0.2
v -0.1 0.5 -0.2
v -0.1 0.6 -0.2
v -0.1 1 -0.2
v -0.1 1.1 -0.2
v -0.1 1.2 -0.2
v -0.1 1.3 -0.2
v 0 1.1 -0.2
v 0 1.2 -0.2
v 0 1.3 -0.2
v 0.1 1 -0.2
v 0.1 1.1 -0.2
v 0.1 1.2 -0.2
v 0.2 0.2 -0.2
v 0.2 0.3 -0.2
v 0.2 0.6 -0.2
v 0.2 0.7 -0.2
v 0.2 0.9 -0.2
v 0.2 1 -0.2
v 0.2 1.1 -0.2
v 0.3 0.6 -0.2
v 0.3 0.7 -0.2
v 0.3 0.9 -0.2
v 0.3 1 -0.2
v -0.2 0.6 -0.3
v -0.2 0.7 -0.3
v -0.2 0.8 -0.3
v -0.2 1 -0.3
v -0.1 0.7 -0.3
v -0.1 0.8 -0.3
v -0.1 0.9 -0.3
v -0.1 1 -0.3
v -0.1 1.1 -0.3
v -0.1 1.3 -0.3
v -0.1 1.4 -0.3
v 0 0.8 -0.3
v 0 0.9 -0.3
v 0 1.3 -0.3
v 0 1.4 -0.3
v 0.1 1 -0.3
v 0.1 1.1 -0.3
v 0.2 0.6 -0.3
v 0.2 0.7 -0.3
v 0.2 0.9 -0.3
v 0.2 1 -0.3
v 0.3 0.7 -0.3
v 0.3 0.9 -0.3
v -0.2 0 0
v -0.1 0 0
v 0.1 0 0
v 0.2 0 0
v -0.2 0 -0.1
v -0.1 0 -0.1
v 0.1 0 -0.1
v 0.2 0 -0.1
v -0.2 0.2 0.1
v 0.2 0.2 0.1
v -0.2 0.2 0
v -0.1 0.2 0
v 0.1 0.2 0
v 0.2 0.2 0
v -0.2 0.2 -0.1
v -0.1 0.2 -0.1
v 0.1 0.2 -0.1
v 0.2 0.2 -0.1
v -0.2 0.2 -0.2
v 0.2 0.2 -0.2
v -0.4 0.3 0
v -0.3 0.3 0
v 0.3 0.3 0
v 0.4 0.3 0
v -0.4 0.3 -0.1
v -0.3 0.3 -0.1
v 0.3 0.3 -0.1
v 0.4 0.3 -0.1
v -0.3 0.4 0
v -0.2 0.4 0
v 0.2 0.4 0
v 0.3 0.4 0
v -0.3 0.4 -0.1
v -0.2 0.4 -0.1
v 0.2 0.4 -0.1
v 0.3 0.4 -0.1
v -0.1 0.5 0
v 0.1 0.5 0
v -0.1 0.5 -0.1
v 0.1 0.5 -0.1
v -0.2 0.6 0.2
v 0 0.6 0.2
v 0.1 0.6 0.2
v 0.2 0.6 0.2
v -0.2 0.6 0.1
v -0.1 0.6 0.1
v 0 0.6 0.1
v 0.1 0.6 0.1
v 0.2 0.6 0.1
v 0.3 0.6 0.1
v -0.3 0.6 0
v -0.2 0.6 0
v -0.2 0.6 -0.1
v -0.3 0.6 -0.2
v -0.2 0.6 -0.2
v -0.1 0.6 -0.2
v 0.2 0.6 -0.2
v 0.3 0.6 -0.2
v -0.2 0.6 -0.3
v 0.2 0.6 -0.3
v -0.3 0.7 0.2
v -0.2 0.7 0.2
v 0.2 0.7 0.2
v 0.3 0.7 0.2
v 0.2 0.7 0.1
v 0.3 0.7 0.1
v -0.4 0.7 0
v -0.3 0.7 0
v -0.2 0.7 0
v 0.3 0.7 0
v 0.4 0.7 0
v -0.4 0.7 -0.1
v -0.3 0.7 -0.1
v 0.3 0.7 -0.1
v 0.4 0.7 -0.1
v 0.2 0.7 -0.2
v 0.3 0.7 -0.2
v 0.2 0.7 -0.3
v 0.3 0.7 -0.3
v -0.5 0.9 0
v -0.4 0.9 0
v 0.4 0.9 0
v 0.5 0.9 0
v -0.5 0.9 -0.1
v -0.4 0.9 -0.1
v 0.4 0.9 -0.1
v 0.5 0.9 -0.1
v -0.1 1.3 -0.2
v 0 1.3 -0.2
v -0.1 1.3 -0.3
v 0 1.3 -0.3
v -0.4 0.4 0
v -0.3 0.4 0
v -0.1 0.4 0
v 0.1 0.4 0
v 0.3 0.4 0
v 0.4 0.4 0
v -0.4 0.4 -0.1
v -0.3 0.4 -0.1
v -0.1 0.4 -0.1
v 0.1 0.4 -0.1
v 0.3 0.4 -0.1
v 0.4 0.4 -0.1
v -0.3 0.5 0
v -0.2 0.5 0
v 0.2 0.5 0
v 0.3 0.5 0
v -0.3 0.5 -0.1
v -0.2 0.5 -0.1
v 0.2 0.5 -0.1
v 0.3 0.5 -0.1
v -0.3 0.9 0.2
v -0.2 0.9 0.2
v 0.2 0.9 0.2
v 0.3 0.9 0.2
v -0.3 0.9 0.1
v -0.2 0.9 0.1
v 0.2 0.9 0.1
v 0.3 0.9 0.1
v -0.4 0.9 0
v -0.3 0.9 0
v 0.3 0.9 0
v 0.4 0.9 0
v -0.4 0.9 -0.1
v -0.3 0.9 -0.1
v 0.3 0.9 -0.1
v 0.4 0.9 -0.1
v 0.2 0.9 -0.2
v 0.3 0.9 -0.2
v 0.2 0.9 -0.3
v 0.3 0.9 -0.3
v -0.2 1 0.2
v -0.1 1 0.2
v 0.1 1 0.2
v 0.2 1 0.2
v -0.3 1 0.1
v -0.2 1 0.1
v -0.1 1 0.1
v 0.1 1 0.1
v 0.2 1 0.1
v 0.3 1 0.1
v -0.5 1 0
v -0.4 1 0
v -0.2 1 0
v 0.4 1 0
v 0.5 1 0
v -0.5 1 -0.1
v -0.4 1 -0.1
v 0.4 1 -0.1
v 0.5 1 -0.1
v -0.3 1 -0.2
v -0.2 1 -0.2
v -0.1 1 -0.2
v 0.1 1 -0.2
v 0.2 1 -0.2
v 0.3 1 -0.2
v -0.2 1 -0.3
v -0.1 1 -0.3
v 0.1 1 -0.3
v 0.2 1 -0.3
v -0.1 1.1 0.2
v 0.1 1.1 0.2
v -0.2 1.1 0.1
v -0.1 1.1 0.1
v 0 1.1 0.1
v 0.1 1.1 0.1
v 0.2 1.1 0.1
v -0.2 1.1 0
v -0.1 1.1 0
v 0.1 1.1 0
v -0.1 1.1 -0.1
v -0.2 1.1 -0.2
v -0.1 1.1 -0.2
v 0 1.1 -0.2
v 0.1 1.1 -0.2
v 0.2 1.1 -0.2
v -0.1 1.1 -0.3
v 0.1 1.1 -0.3
v -0.1 1.2 0.1
v 0 1.2 0.1
v 0.1 1.2 0.1
v -0.1 1.2 0
v 0 1.2 0
v 0.1 1.2 0
v 0 1.2 -0.1
v 0.1 1.2 -0.1
v 0 1.2 -0.2
v 0.1 1.2 -0.2
v -0.1 1.3 0
v 0 1.3 0
v 0.1 1.3 0
v -0.1 1.3 -0.1
v 0 1.3 -0.1
v 0.1 1.3 -0.1
v -0.1 1.4 -0.1
v 0 1.4 -0.1
v -0.1 1.4 -0.3
v 0 1.4 -0.3

# faces
f 3/5/1 2/5/1 1/5/1
f 4/5/1 2/5/1 3/5/1
f 7/12/1 6/12/1 5/12/1
f 8/12/1 6/12/1 7/12/1
f 11/5/1 10/5/1 9/5/1
f 12/5/1 10/5/1 11/5/1
f 15/12/1 14/12/1 13/12/1
f 16/12/1 14/12/1 15/12/1
f 20/12/1 18/12/1 17/12/1
f 21/12/1 18/12/1 20/12/1
f 22/12/1 20/12/1 19/12/1
f 23/12/1 20/12/1 22/12/1
f 24/12/1 20/12/1 23/12/1
f 25/12/1 18/12/1 21/12/1
f 26/12/1 24/12/1 23/12/1
f 26/12/1 25/12/1 24/12/1
f 27/12/1 18/12/1 25/12/1
f 27/12/1 25/12/1 26/12/1
f 30/9/1 29/9/1 28/9/1
f 31/9/1 29/9/1 30/9/1
f 33/12/1 31/12/1 30/12/1
f 34/12/1 31/12/1 33/12/1
f 36/12/1 34/12/1 33/12/1
f 36/12/1 35/12/1 34/12/1
f 36/12/1 33/12/1 32/12/1
f 37/12/1 35/12/1 36/12/1
f 38/12/1 35/12/1 37/12/1
f 39/12/1 35/12/1 38/12/1
f 40/15/1 37/15/1 36/15/1
f 40/4/1 38/4/1 37/4/1
f 41/15/1 39/15/1 38/15/1
f 41/4/1 38/4/1 40/4/1
f 42/15/1 40/15/1 36/15/1
f 43/15/1 40/15/1 42/15/1
f 44/15/1 39/15/1 41/15/1
f 45/15/1 39/15/1 44/15/1
f 47/4/1 43/4/1 42/4/1
f 48/15/1 44/15/1 43/15/1
f 48/4/1 43/4/1 47/4/1
f 49/13/1 45/13/1 44/13/1
f 49/15/1 44/15/1 48/15/1
f 50/13/1 45/13/1 49/13/1
f 52/12/1 47/12/1 46/12/1
f 52/12/1 48/12/1 47/12/1
f 53/12/1 48/12/1 52/12/1
f 54/12/1 51/12/1 50/12/1
f 55/12/1 51/12/1 54/12/1
f 56/7/1 55/7/1 54/7/1
f 57/7/1 55/7/1 56/7/1
f 60/12/1 59/12/1 58/12/1
f 61/12/1 59/12/1 60/12/1
f 63/12/1 57/12/1 56/12/1
f 64/12/1 57/12/1 63/12/1
f 65/10/1 62/10/1 61/10/1
f 66/8/1 63/8/1 62/8/1
f 66/10/1 62/10/1 65/10/1
f 67/8/1 63/8/1 66/8/1
f 72/8/1 69/8/1 68/8/1
f 73/8/1 69/8/1 72/8/1
f 76/8/1 71/8/1 70/8/1
f 77/8/1 71/8/1 76/8/1
f 78/8/1 75/8/1 74/8/1
f 78/8/1 74/8/1 73/8/1
f 79/8/1 75/8/1 78/8/1
f 80/10/1 76/10/1 75/10/1
f 80/8/1 75/8/1 79/8/1
f 81/10/1 76/10/1 80/10/1
f 82/10/1 80/10/1 79/10/1
f 83/8/1 81/8/1 80/8/1
f 83/10/1 80/10/1 82/10/1
f 84/8/1 81/8/1 83/8/1
f 86/10/1 84/10/1 83/10/1
f 86/10/1 85/10/1 84/10/1
f 87/10/1 85/10/1 86/10/1
f 90/9/1 89/9/1 88/9/1
f 91/9/1 89/9/1 90/9/1
f 92/12/1 91/12/1 90/12/1
f 93/12/1 91/12/1 92/12/1
f 96/3/1 95/3/1 94/3/1
f 97/3/1 95/3/1 96/3/1
f 100/12/1 99/12/1 98/12/1
f 101/12/1 99/12/1 100/12/1
f 104/5/1 103/5/1 102/5/1
f 105/5/1 103/5/1 104/5/1
f 106/5/2 107/5/2 108/5/2
f 108/5/2 107/5/2 109/5/2
f 110/12/2 111/12/2 112/12/2
f 112/12/2 111/12/2 113/12/2
f 114/9/2 115/9/2 116/9/2
f 116/9/2 115/9/2 117/9/2
f 116/12/2 117/12/2 118/12/2
f 118/12/2 117/12/2 119/12/2
f 120/3/2 121/3/2 122/3/2
f 122/3/2 121/3/2 123/3/2
f 124/8/2 125/8/2 126/8/2
f 126/8/2 125/8/2 127/8/2
f 126/10/2 127/10/2 129/10/2
f 127/10/2 128/10/2 129/10/2
f 129/10/2 128/10/2 130/10/2
f 131/8/2 132/8/2 135/8/2
f 135/8/2 132/8/2 136/8/2
f 133/8/2 134/8/2 138/8/2
f 138/8/2 134/8/2 139/8/2
f 136/10/2 137/10/2 140/10/2
f 137/8/2 138/8/2 141/8/2
f 140/10/2 137/10/2 141/10/2
f 141/8/2 138/8/2 142/8/2
f 142/8/2 138/8/2 143/8/2
f 141/8/2 142/8/2 144/8/2
f 144/8/2 142/8/2 145/8/2
f 146/9/2 147/9/2 148/9/2
f 148/9/2 147/9/2 149/9/2
f 148/12/2 149/12/2 151/12/2
f 151/12/2 149/12/2 152/12/2
f 151/12/2 152/12/2 154/12/2
f 152/12/2 153/12/2 154/12/2
f 150/12/2 151/12/2 154/12/2
f 154/12/2 153/12/2 155/12/2
f 155/12/2 153/12/2 156/12/2
f 156/12/2 153/12/2 157/12/2
f 154/15/2 155/15/2 158/15/2
f 155/13/2 156/13/2 158/13/2
f 156/15/2 157/15/2 159/15/2
f 158/13/2 156/13/2 159/13/2
f 154/15/2 158/15/2 160/15/2
f 159/15/2 157/15/2 161/15/2
f 154/15/2 160/15/2 163/15/2
f 160/15/2 161/15/2 163/15/2
f 161/15/2 157/15/2 164/15/2
f 163/15/2 161/15/2 164/15/2
f 162/12/2 163/12/2 166/12/2
f 166/12/2 163/12/2 167/12/2
f 164/12/2 165/12/2 168/12/2
f 168/12/2 165/12/2 169/12/2
f 170/6/2 171/6/2 174/6/2
f 174/6/2 171/6/2 175/6/2
f 172/12/2 173/12/2 176/12/2
f 176/12/2 173/12/2 177/12/2
f 175/8/2 176/8/2 178/8/2
f 178/8/2 176/8/2 179/8/2
f 180/12/2 181/12/2 182/12/2
f 182/12/2 181/12/2 183/12/2
f 184/12/2 185/12/2 187/12/2
f 187/12/2 185/12/2 188/12/2
f 188/12/2 185/12/2 189/12/2
f 189/12/2 185/12/2 190/12/2
f 186/12/2 187/12/2 192/12/2
f 187/12/2 188/12/2 192/12/2
f 192/12/2 188/12/2 193/12/2
f 193/12/2 188/12/2 194/12/2
f 190/12/2 191/12/2 195/12/2
f 189/12/2 190/12/2 195/12/2
f 195/12/2 191/12/2 196/12/2
f 196/12/2 191/12/2 197/12/2
f 193/12/2 194/12/2 198/12/2
f 195/12/2 196/12/2 198/12/2
f 194/12/2 195/12/2 198/12/2
f 198/12/2 196/12/2 199/12/2
f 200/12/2 201/12/2 202/12/2
f 202/12/2 201/12/2 203/12/2
f 204/5/2 205/5/2 206/5/2
f 206/5/2 205/5/2 207/5/2
f 208/5/2 209/5/2 210/5/2
f 210/5/2 209/5/2 211/5/2
f 215/12/3 213/12/3 212/12/3
f 216/12/3 213/12/3 215/12/3
f 217/12/3 213/12/3 216/12/3
f 219/12/3 215/12/3 214/12/3
f 219/6/3 216/6/3 215/6/3
f 220/11/3 217/11/3 216/11/3
f 220/6/3 216/6/3 219/6/3
f 221/12/3 218/12/3 217/12/3
f 221/11/3 217/11/3 220/11/3
f 222/12/3 218/12/3 221/12/3
f 224/12/3 220/12/3 219/12/3
f 224/12/3 219/12/3 214/12/3
f 225/12/3 220/12/3 224/12/3
f 226/7/3 221/7/3 220/7/3
f 226/12/3 220/12/3 225/12/3
f 227/12/3 222/12/3 221/12/3
f 227/7/3 221/7/3 226/7/3
f 228/6/3 225/6/3 224/6/3
f 229/7/3 226/7/3 225/7/3
f 229/6/3 225/6/3 228/6/3
f 230/12/3 227/12/3 226/12/3
f 230/7/3 226/7/3 229/7/3
f 231/12/3 222/12/3 227/12/3
f 231/12/3 227/12/3 230/12/3
f 232/8/3 223/8/3 222/8/3
f 232/12/3 222/12/3 231/12/3
f 233/8/3 223/8/3 232/8/3
f 234/12/3 230/12/3 229/12/3
f 234/12/3 229/12/3 228/12/3
f 235/12/3 230/12/3 234/12/3
f 236/11/3 231/11/3 230/11/3
f 236/12/3 230/12/3 235/12/3
f 237/6/3 232/6/3 231/6/3
f 237/11/3 231/11/3 236/11/3
f 238/6/3 232/6/3 237/6/3
f 239/12/3 236/12/3 235/12/3
f 239/12/3 237/12/3 236/12/3
f 240/12/3 237/12/3 239/12/3
f 247/12/3 242/12/3 241/12/3
f 248/12/3 242/12/3 247/12/3
f 250/12/3 244/12/3 243/12/3
f 250/15/3 245/15/3 244/15/3
f 251/15/3 245/15/3 250/15/3
f 252/4/3 246/4/3 245/4/3
f 252/15/3 245/15/3 251/15/3
f 253/4/3 246/4/3 252/4/3
f 254/10/3 249/10/3 248/10/3
f 255/10/3 249/10/3 254/10/3
f 257/13/3 251/13/3 250/13/3
f 257/12/3 250/12/3 243/12/3
f 258/15/3 253/15/3 252/15/3
f 258/13/3 251/13/3 257/13/3
f 258/15/3 252/15/3 251/15/3
f 259/15/3 253/15/3 258/15/3
f 260/15/3 253/15/3 259/15/3
f 261/8/3 256/8/3 255/8/3
f 262/8/3 256/8/3 261/8/3
f 263/14/3 260/14/3 259/14/3
f 263/15/3 258/15/3 257/15/3
f 263/15/3 259/15/3 258/15/3
f 264/14/3 260/14/3 263/14/3
f 266/10/3 262/10/3 261/10/3
f 267/10/3 262/10/3 266/10/3
f 268/12/3 257/12/3 243/12/3
f 269/15/3 264/15/3 263/15/3
f 269/12/3 257/12/3 268/12/3
f 269/15/3 263/15/3 257/15/3
f 270/15/3 264/15/3 269/15/3
f 273/8/3 266/8/3 265/8/3
f 274/8/3 266/8/3 273/8/3
f 275/12/3 271/12/3 270/12/3
f 276/12/3 271/12/3 275/12/3
f 277/12/3 273/12/3 272/12/3
f 278/12/3 273/12/3 277/12/3
f 284/5/3 280/5/3 279/5/3
f 285/5/3 280/5/3 284/5/3
f 286/12/3 282/12/3 281/12/3
f 287/12/3 282/12/3 286/12/3
f 290/5/3 284/5/3 283/5/3
f 291/5/3 284/5/3 290/5/3
f 295/12/3 288/12/3 287/12/3
f 296/12/3 288/12/3 295/12/3
f 297/12/3 290/12/3 289/12/3
f 298/12/3 290/12/3 297/12/3
f 299/9/3 293/9/3 292/9/3
f 300/12/3 294/12/3 293/12/3
f 300/9/3 293/9/3 299/9/3
f 301/12/3 294/12/3 300/12/3
f 304/10/3 303/10/3 302/10/3
f 305/10/3 303/10/3 304/10/3
f 309/8/3 305/8/3 304/8/3
f 310/8/3 305/8/3 309/8/3
f 311/9/3 307/9/3 306/9/3
f 312/12/3 308/12/3 307/12/3
f 312/9/3 307/9/3 311/9/3
f 313/12/3 308/12/3 312/12/3
f 317/12/3 315/12/3 314/12/3
f 318/12/3 315/12/3 317/12/3
f 321/12/3 317/12/3 316/12/3
f 322/12/3 317/12/3 321/12/3
f 323/5/3 320/5/3 319/5/3
f 324/5/3 320/5/3 323/5/3
f 326/5/3 325/5/3 324/5/3
f 327/5/3 325/5/3 326/5/3
f 332/10/3 331/10/3 330/10/3
f 333/10/3 331/10/3 332/10/3
f 334/15/3 329/15/3 328/15/3
f 335/15/3 329/15/3 334/15/3
f 336/15/4 337/15/4 338/15/4
f 338/15/4 337/15/4 339/15/4
f 340/5/4 341/5/4 345/5/4
f 345/5/4 341/5/4 346/5/4
f 342/12/4 343/12/4 347/12/4
f 347/12/4 343/12/4 348/12/4
f 344/5/4 345/5/4 350/5/4
f 350/5/4 345/5/4 351/5/4
f 348/12/4 349/12/4 355/12/4
f 355/12/4 349/12/4 356/12/4
f 352/9/4 353/9/4 357/9/4
f 353/12/4 354/12/4 358/12/4
f 357/9/4 353/9/4 358/9/4
f 358/12/4 354/12/4 359/12/4
f 360/8/4 361/8/4 365/8/4
f 365/8/4 361/8/4 366/8/4
f 362/9/4 363/9/4 367/9/4
f 363/12/4 364/12/4 368/12/4
f 367/9/4 363/9/4 368/9/4
f 368/12/4 364/12/4 369/12/4
f 370/12/4 371/12/4 373/12/4
f 373/12/4 371/12/4 374/12/4
f 372/12/4 373/12/4 377/12/4
f 377/12/4 373/12/4 378/12/4
f 375/5/4 376/5/4 379/5/4
f 379/5/4 376/5/4 380/5/4
f 380/5/4 381/5/4 382/5/4
f 382/5/4 381/5/4 383/5/4
f 384/12/4 385/12/4 389/12/4
f 389/12/4 385/12/4 390/12/4
f 390/12/4 385/12/4 391/12/4
f 391/12/4 385/12/4 392/12/4
f 387/15/4 388/15/4 394/15/4
f 388/13/4 389/13/4 394/13/4
f 394/13/4 389/13/4 395/13/4
f 392/8/4 393/8/4 396/8/4
f 396/8/4 393/8/4 397/8/4
f 397/10/4 398/10/4 400/10/4
f 398/8/4 399/8/4 401/8/4
f 400/10/4 398/10/4 401/10/4
f 401/8/4 399/8/4 402/8/4
f 400/8/4 401/8/4 404/8/4
f 404/8/4 401/8/4 405/8/4
f 386/12/4 387/12/4 406/12/4
f 394/15/4 395/15/4 407/15/4
f 406/12/4 387/12/4 407/12/4
f 387/15/4 394/15/4 407/15/4
f 407/15/4 395/15/4 408/15/4
f 403/8/4 404/8/4 411/8/4
f 411/8/4 404/8/4 412/8/4
f 408/12/4 409/12/4 413/12/4
f 413/12/4 409/12/4 414/12/4
f 410/12/4 411/12/4 415/12/4
f 415/12/4 411/12/4 416/12/4
f 417/12/4 418/12/4 421/12/4
f 418/7/4 419/7/4 421/7/4
f 419/12/4 420/12/4 422/12/4
f 421/7/4 419/7/4 422/7/4
f 422/12/4 420/12/4 423/12/4
f 423/12/4 420/12/4 424/12/4
f 421/12/4 422/12/4 428/12/4
f 422/7/4 423/7/4 428/7/4
f 423/12/4 424/12/4 429/12/4
f 428/7/4 423/7/4 429/7/4
f 426/10/4 427/10/4 430/10/4
f 430/10/4 427/10/4 431/10/4
f 429/12/4 424/12/4 432/12/4
f 424/8/4 425/8/4 432/8/4
f 428/12/4 429/12/4 432/12/4
f 432/8/4 425/8/4 433/8/4
f 417/12/4 421/12/4 434/12/4
f 421/12/4 428/12/4 434/12/4
f 428/12/4 432/12/4 434/12/4
f 434/12/4 432/12/4 435/12/4
f 435/12/4 432/12/4 436/12/4
f 436/12/4 432/12/4 437/12/4
f 435/12/4 436/12/4 438/12/4
f 438/12/4 436/12/4 439/12/4
f 444/9/5 441/9/5 440/9/5
f 445/9/5 441/9/5 444/9/5
f 446/9/5 443/9/5 442/9/5
f 447/9/5 443/9/5 446/9/5
f 450/12/5 449/12/5 448/12/5
f 451/12/5 449/12/5 450/12/5
f 452/12/5 449/12/5 451/12/5
f 453/12/5 449/12/5 452/12/5
f 455/12/5 452/12/5 451/12/5
f 456/12/5 452/12/5 455/12/5
f 458/12/5 455/12/5 454/12/5
f 458/12/5 457/12/5 456/12/5
f 458/12/5 456/12/5 455/12/5
f 459/12/5 457/12/5 458/12/5
f 464/12/5 461/12/5 460/12/5
f 465/12/5 461/12/5 464/12/5
f 466/12/5 463/12/5 462/12/5
f 467/12/5 463/12/5 466/12/5
f 472/12/5 469/12/5 468/12/5
f 473/12/5 469/12/5 472/12/5
f 474/12/5 471/12/5 470/12/5
f 475/12/5 471/12/5 474/12/5
f 478/2/5 477/2/5 476/2/5
f 479/2/5 477/2/5 478/2/5
f 484/12/5 481/12/5 480/12/5
f 485/12/5 481/12/5 484/12/5
f 486/6/5 482/6/5 481/6/5
f 486/12/5 481/12/5 485/12/5
f 487/12/5 483/12/5 482/12/5
f 487/6/5 482/6/5 486/6/5
f 488/12/5 483/12/5 487/12/5
f 492/12/5 491/12/5 490/12/5
f 493/12/5 492/12/5 490/12/5
f 494/12/5 492/12/5 493/12/5
f 496/12/5 489/12/5 488/12/5
f 497/12/5 489/12/5 496/12/5
f 498/12/5 495/12/5 494/12/5
f 498/12/5 496/12/5 495/12/5
f 499/12/5 496/12/5 498/12/5
f 504/12/5 503/12/5 502/12/5
f 505/12/5 503/12/5 504/12/5
f 507/12/5 501/12/5 500/12/5
f 508/12/5 501/12/5 507/12/5
f 511/5/5 507/5/5 506/5/5
f 512/5/5 507/5/5 511/5/5
f 513/5/5 510/5/5 509/5/5
f 514/5/5 510/5/5 513/5/5
f 517/12/5 516/12/5 515/12/5
f 518/12/5 516/12/5 517/12/5
f 523/5/5 520/5/5 519/5/5
f 524/5/5 520/5/5 523/5/5
f 525/5/5 522/5/5 521/5/5
f 526/5/5 522/5/5 525/5/5
f 529/10/5 528/10/5 527/10/5
f 530/10/5 528/10/5 529/10/5
f 531/12/6 532/12/6 537/12/6
f 537/12/6 532/12/6 538/12/6
f 533/1/6 534/1/6 539/1/6
f 539/1/6 534/1/6 540/1/6
f 535/12/6 536/12/6 541/12/6
f 541/12/6 536/12/6 542/12/6
f 543/12/6 544/12/6 547/12/6
f 547/12/6 544/12/6 548/12/6
f 545/12/6 546/12/6 549/12/6
f 549/12/6 546/12/6 550/12/6
f 551/12/6 552/12/6 555/12/6
f 555/12/6 552/12/6 556/12/6
f 553/12/6 554/12/6 557/12/6
f 557/12/6 554/12/6 558/12/6
f 559/5/6 560/5/6 563/5/6
f 563/5/6 560/5/6 564/5/6
f 561/5/6 562/5/6 565/5/6
f 565/5/6 562/5/6 566/5/6
f 567/12/6 568/12/6 569/12/6
f 569/12/6 568/12/6 570/12/6
f 571/12/6 572/12/6 576/12/6
f 576/12/6 572/12/6 577/12/6
f 573/6/6 574/6/6 578/6/6
f 578/6/6 574/6/6 579/6/6
f 575/12/6 576/12/6 583/12/6
f 581/5/6 582/5/6 586/5/6
f 586/5/6 582/5/6 587/5/6
f 584/5/6 585/5/6 588/5/6
f 588/5/6 585/5/6 589/5/6
f 575/12/6 583/12/6 590/12/6
f 590/12/6 583/12/6 591/12/6
f 579/12/6 580/12/6 594/12/6
f 594/12/6 580/12/6 595/12/6
f 591/12/6 592/12/6 596/12/6
f 596/12/6 592/12/6 597/12/6
f 593/12/6 594/12/6 598/12/6
f 598/12/6 594/12/6 599/12/6
f 600/8/6 601/8/6 603/8/6
f 603/8/6 601/8/6 604/8/6
f 604/8/6 601/8/6 605/8/6
f 602/10/6 603/10/6 607/10/6
f 607/10/6 603/10/6 608/10/6
f 605/8/6 606/8/6 609/8/6
f 607/8/6 608/8/6 610/8/6
f 607/8/6 610/8/6 611/8/6
f 611/8/6 610/8/6 612/8/6
f 609/8/6 606/8/6 614/8/6
f 614/8/6 606/8/6 615/8/6
f 612/8/6 613/8/6 616/8/6
f 613/8/6 614/8/6 616/8/6
f 616/8/6 614/8/6 617/8/6
f 618/8/6 619/8/6 621/8/6
f 619/10/6 620/10/6 622/10/6
f 621/8/6 619/8/6 622/8/6
f 622/10/6 620/10/6 623/10/6
f 624/8/6 625/8/6 626/8/6
f 626/8/6 625/8/6 627/8/6
f 628/10/6 629/10/6 631/10/6
f 629/8/6 630/8/6 632/8/6
f 631/10/6 629/10/6 632/10/6
f 632/8/6 630/8/6 633/8/6
f 634/10/6 635/10/6 636/10/6
f 636/10/6 635/10/6 637/10/6
