# MagicaVoxel @ Ephtracy

# group
o 

# material
mtllib Run0.mtl
usemtl palette

# normals
vn -1 0 0
vn 1 0 0
vn 0 0 1
vn 0 0 -1
vn 0 -1 0
vn 0 1 0

# texcoords
vt 0.0644531 0.5
vt 0.205078 0.5
vt 0.958984 0.5
vt 0.994141 0.5

# verts
v -0.4 0 0.3
v -0.4 0 0.2
v -0.4 0 0.1
v -0.4 0 0
v -0.4 0.1 0.3
v -0.4 0.1 0.2
v -0.4 0.1 0.1
v -0.4 0.1 0
v -0.3 0 0.4
v -0.3 0 0.3
v -0.3 0 0.2
v -0.3 0 0.1
v -0.3 0 0
v -0.3 0 -0.5
v -0.3 0.1 0.4
v -0.3 0.1 0.3
v -0.3 0.1 0.2
v -0.3 0.1 0.1
v -0.3 0.1 0
v -0.3 0.1 -0.5
v -0.3 0.1 -0.6
v -0.3 0.4 0.1
v -0.3 0.4 0
v -0.3 0.5 0
v -0.3 0.5 -0.6
v -0.2 0 -0.5
v -0.2 0 -0.6
v -0.2 0.1 0.4
v -0.2 0.1 0.3
v -0.2 0.1 0.2
v -0.2 0.1 0.1
v -0.2 0.1 -0.5
v -0.2 0.1 -0.6
v -0.2 0.2 0.4
v -0.2 0.2 0.3
v -0.2 0.2 0.2
v -0.2 0.2 0.1
v -0.2 0.3 0.5
v -0.2 0.3 0.4
v -0.2 0.4 0.5
v -0.2 0.4 0.4
v -0.2 0.4 0.1
v -0.2 0.4 0
v -0.2 0.5 0.1
v -0.2 0.5 0
v -0.2 0.5 -0.6
v -0.2 0.6 0
v -0.2 0.6 -0.3
v -0.2 0.6 -0.4
v -0.2 0.6 -0.6
v -0.2 0.7 -0.3
v -0.2 0.7 -0.4
v -0.1 0.1 0.5
v -0.1 0.1 0.4
v -0.1 0.1 0.3
v -0.1 0.1 0.2
v -0.1 0.2 0.4
v -0.1 0.2 0.3
v -0.1 0.2 0.2
v -0.1 0.2 0.1
v -0.1 0.3 0.5
v -0.1 0.3 0.4
v -0.1 0.4 0.4
v -0.1 0.4 0.2
v -0.1 0.4 0.1
v -0.1 0.6 -0.2
v -0.1 0.6 -0.3
v -0.1 0.6 -0.4
v -0.1 0.6 -0.5
v -0.1 0.7 -0.2
v -0.1 0.7 -0.3
v -0.1 0.7 -0.4
v -0.1 0.7 -0.5
v 0 0.4 0.2
v 0 0.4 0.1
v 0 0.5 0.2
v 0 0.5 0.1
v 0 0.6 -0.5
v 0 0.6 -0.6
v 0 0.7 -0.5
v 0 0.7 -0.6
v 0.2 0 0.4
v 0.2 0 0.3
v 0.2 0 0.2
v 0.2 0 0.1
v 0.2 0.1 0.4
v 0.2 0.1 0.3
v 0.2 0.1 0.2
v 0.2 0.1 0.1
v 0.4 0 0.3
v 0.4 0 0.2
v 0.4 0.1 0.3
v 0.4 0.1 0.2
v -0.3 0 0.3
v -0.3 0 0.2
v -0.3 0.1 0.3
v -0.3 0.1 0.2
v -0.1 0 0.4
v -0.1 0 0.3
v -0.1 0 0.2
v -0.1 0 0.1
v -0.1 0.1 0.4
v -0.1 0.1 0.3
v -0.1 0.1 0.2
v -0.1 0.1 0.1
v 0.1 0.4 0.2
v 0.1 0.4 0.1
v 0.1 0.5 0.2
v 0.1 0.5 0.1
v 0.1 0.6 -0.5
v 0.1 0.6 -0.6
v 0.1 0.7 -0.5
v 0.1 0.7 -0.6
v 0.2 0.1 0.5
v 0.2 0.1 0.4
v 0.2 0.1 0.3
v 0.2 0.1 0.2
v 0.2 0.2 0.4
v 0.2 0.2 0.3
v 0.2 0.2 0.2
v 0.2 0.2 0.1
v 0.2 0.3 0.5
v 0.2 0.3 0.4
v 0.2 0.4 0.4
v 0.2 0.4 0.2
v 0.2 0.4 0.1
v 0.2 0.6 -0.2
v 0.2 0.6 -0.3
v 0.2 0.6 -0.4
v 0.2 0.6 -0.5
v 0.2 0.7 -0.2
v 0.2 0.7 -0.3
v 0.2 0.7 -0.4
v 0.2 0.7 -0.5
v 0.3 0 -0.5
v 0.3 0 -0.6
v 0.3 0.1 0.4
v 0.3 0.1 0.3
v 0.3 0.1 0.2
v 0.3 0.1 0.1
v 0.3 0.1 -0.5
v 0.3 0.1 -0.6
v 0.3 0.2 0.4
v 0.3 0.2 0.3
v 0.3 0.2 0.2
v 0.3 0.2 0.1
v 0.3 0.3 0.5
v 0.3 0.3 0.4
v 0.3 0.4 0.5
v 0.3 0.4 0.4
v 0.3 0.4 0.1
v 0.3 0.4 0
v 0.3 0.5 0.1
v 0.3 0.5 0
v 0.3 0.5 -0.6
v 0.3 0.6 0
v 0.3 0.6 -0.3
v 0.3 0.6 -0.4
v 0.3 0.6 -0.6
v 0.3 0.7 -0.3
v 0.3 0.7 -0.4
v 0.4 0 0.4
v 0.4 0 0.3
v 0.4 0 0.2
v 0.4 0 0.1
v 0.4 0 0
v 0.4 0 -0.5
v 0.4 0.1 0.4
v 0.4 0.1 0.3
v 0.4 0.1 0.2
v 0.4 0.1 0.1
v 0.4 0.1 0
v 0.4 0.1 -0.5
v 0.4 0.1 -0.6
v 0.4 0.4 0.1
v 0.4 0.4 0
v 0.4 0.5 0
v 0.4 0.5 -0.6
v 0.5 0 0.3
v 0.5 0 0.2
v 0.5 0 0.1
v 0.5 0 0
v 0.5 0.1 0.3
v 0.5 0.1 0.2
v 0.5 0.1 0.1
v 0.5 0.1 0
v -0.2 0.3 0.5
v -0.2 0.4 0.5
v -0.1 0.1 0.5
v -0.1 0.3 0.5
v -0.1 0.4 0.5
v 0.2 0.1 0.5
v 0.2 0.3 0.5
v 0.2 0.4 0.5
v 0.3 0.3 0.5
v 0.3 0.4 0.5
v -0.3 0 0.4
v -0.3 0.1 0.4
v -0.2 0.1 0.4
v -0.2 0.2 0.4
v -0.1 0 0.4
v -0.1 0.1 0.4
v -0.1 0.2 0.4
v 0.2 0 0.4
v 0.2 0.1 0.4
v 0.2 0.2 0.4
v 0.3 0.1 0.4
v 0.3 0.2 0.4
v 0.4 0 0.4
v 0.4 0.1 0.4
v -0.4 0 0.3
v -0.4 0.1 0.3
v -0.3 0 0.3
v -0.3 0.1 0.3
v 0.4 0 0.3
v 0.4 0.1 0.3
v 0.5 0 0.3
v 0.5 0.1 0.3
v -0.3 0 0.2
v -0.3 0.1 0.2
v -0.2 0.1 0.2
v -0.2 0.2 0.2
v -0.1 0 0.2
v -0.1 0.1 0.2
v -0.1 0.2 0.2
v 0 0.4 0.2
v 0 0.5 0.2
v 0.1 0.4 0.2
v 0.1 0.5 0.2
v 0.2 0 0.2
v 0.2 0.1 0.2
v 0.2 0.2 0.2
v 0.3 0.1 0.2
v 0.3 0.2 0.2
v 0.4 0 0.2
v 0.4 0.1 0.2
v -0.4 0 0.1
v -0.4 0.1 0.1
v -0.3 0 0.1
v -0.3 0.1 0.1
v -0.3 0.4 0.1
v -0.2 0.1 0.1
v -0.2 0.2 0.1
v -0.2 0.4 0.1
v -0.2 0.5 0.1
v -0.1 0 0.1
v -0.1 0.1 0.1
v -0.1 0.2 0.1
v -0.1 0.4 0.1
v 0 0.1 0.1
v 0 0.4 0.1
v 0 0.5 0.1
v 0.1 0.1 0.1
v 0.1 0.4 0.1
v 0.1 0.5 0.1
v 0.2 0 0.1
v 0.2 0.1 0.1
v 0.2 0.2 0.1
v 0.2 0.4 0.1
v 0.3 0.1 0.1
v 0.3 0.2 0.1
v 0.3 0.4 0.1
v 0.3 0.5 0.1
v 0.4 0 0.1
v 0.4 0.1 0.1
v 0.4 0.4 0.1
v 0.5 0 0.1
v 0.5 0.1 0.1
v -0.3 0.4 0
v -0.3 0.5 0
v -0.2 0.4 0
v -0.2 0.5 0
v -0.2 0.6 0
v 0.3 0.4 0
v 0.3 0.5 0
v 0.3 0.6 0
v 0.4 0.4 0
v 0.4 0.5 0
v -0.1 0.6 -0.2
v -0.1 0.7 -0.2
v 0.2 0.6 -0.2
v 0.2 0.7 -0.2
v -0.2 0.6 -0.3
v -0.2 0.7 -0.3
v -0.1 0.6 -0.3
v -0.1 0.7 -0.3
v 0.2 0.6 -0.3
v 0.2 0.7 -0.3
v 0.3 0.6 -0.3
v 0.3 0.7 -0.3
v -0.2 0.3 0.4
v -0.2 0.4 0.4
v -0.1 0.3 0.4
v -0.1 0.4 0.4
v 0.2 0.3 0.4
v 0.2 0.4 0.4
v 0.3 0.3 0.4
v 0.3 0.4 0.4
v -0.3 0 0.3
v -0.3 0.1 0.3
v -0.2 0.1 0.3
v -0.2 0.2 0.3
v -0.1 0 0.3
v -0.1 0.1 0.3
v -0.1 0.2 0.3
v 0.2 0 0.3
v 0.2 0.1 0.3
v 0.2 0.2 0.3
v 0.3 0.1 0.3
v 0.3 0.2 0.3
v 0.4 0 0.3
v 0.4 0.1 0.3
v -0.4 0 0.2
v -0.4 0.1 0.2
v -0.3 0 0.2
v -0.3 0.1 0.2
v 0.4 0 0.2
v 0.4 0.1 0.2
v 0.5 0 0.2
v 0.5 0.1 0.2
v -0.4 0 0
v -0.4 0.1 0
v -0.3 0 0
v -0.3 0.1 0
v 0.4 0 0
v 0.4 0.1 0
v 0.5 0 0
v 0.5 0.1 0
v -0.2 0.6 -0.4
v -0.2 0.7 -0.4
v -0.1 0.6 -0.4
v -0.1 0.7 -0.4
v 0.2 0.6 -0.4
v 0.2 0.7 -0.4
v 0.3 0.6 -0.4
v 0.3 0.7 -0.4
v -0.3 0 -0.5
v -0.3 0.1 -0.5
v -0.2 0 -0.5
v -0.2 0.1 -0.5
v -0.1 0.6 -0.5
v -0.1 0.7 -0.5
v 0 0.6 -0.5
v 0 0.7 -0.5
v 0.1 0.6 -0.5
v 0.1 0.7 -0.5
v 0.2 0.6 -0.5
v 0.2 0.7 -0.5
v 0.3 0 -0.5
v 0.3 0.1 -0.5
v 0.4 0 -0.5
v 0.4 0.1 -0.5
v -0.3 0.1 -0.6
v -0.3 0.5 -0.6
v -0.2 0 -0.6
v -0.2 0.1 -0.6
v -0.2 0.5 -0.6
v -0.2 0.6 -0.6
v 0 0.6 -0.6
v 0 0.7 -0.6
v 0.1 0.6 -0.6
v 0.1 0.7 -0.6
v 0.3 0 -0.6
v 0.3 0.1 -0.6
v 0.3 0.5 -0.6
v 0.3 0.6 -0.6
v 0.4 0.1 -0.6
v 0.4 0.5 -0.6
v -0.3 0 0.4
v -0.1 0 0.4
v 0.2 0 0.4
v 0.4 0 0.4
v -0.4 0 0.3
v -0.3 0 0.3
v -0.1 0 0.3
v 0.2 0 0.3
v 0.4 0 0.3
v 0.5 0 0.3
v -0.4 0 0.2
v -0.3 0 0.2
v -0.1 0 0.2
v 0.2 0 0.2
v 0.4 0 0.2
v 0.5 0 0.2
v -0.4 0 0.1
v -0.3 0 0.1
v -0.2 0 0.1
v -0.1 0 0.1
v 0.2 0 0.1
v 0.3 0 0.1
v 0.4 0 0.1
v 0.5 0 0.1
v -0.4 0 0
v -0.3 0 0
v -0.2 0 0
v 0.3 0 0
v 0.4 0 0
v 0.5 0 0
v -0.3 0 -0.5
v -0.2 0 -0.5
v 0.3 0 -0.5
v 0.4 0 -0.5
v -0.2 0 -0.6
v 0.3 0 -0.6
v -0.1 0.1 0.5
v 0.2 0.1 0.5
v -0.1 0.1 0.4
v 0.2 0.1 0.4
v -0.1 0.1 0.3
v 0.2 0.1 0.3
v -0.1 0.1 0.2
v 0 0.1 0.2
v 0.1 0.1 0.2
v 0.2 0.1 0.2
v -0.1 0.1 0.1
v 0 0.1 0.1
v 0.1 0.1 0.1
v 0.2 0.1 0.1
v -0.3 0.1 -0.5
v -0.2 0.1 -0.5
v 0.3 0.1 -0.5
v 0.4 0.1 -0.5
v -0.3 0.1 -0.6
v -0.2 0.1 -0.6
v 0.3 0.1 -0.6
v 0.4 0.1 -0.6
v -0.2 0.3 0.5
v -0.1 0.3 0.5
v 0.2 0.3 0.5
v 0.3 0.3 0.5
v -0.2 0.3 0.4
v -0.1 0.3 0.4
v 0.2 0.3 0.4
v 0.3 0.3 0.4
v -0.3 0.1 0.4
v -0.2 0.1 0.4
v 0.3 0.1 0.4
v 0.4 0.1 0.4
v -0.4 0.1 0.3
v -0.3 0.1 0.3
v -0.2 0.1 0.3
v 0.3 0.1 0.3
v 0.4 0.1 0.3
v 0.5 0.1 0.3
v -0.4 0.1 0.2
v -0.3 0.1 0.2
v -0.2 0.1 0.2
v 0.3 0.1 0.2
v 0.4 0.1 0.2
v 0.5 0.1 0.2
v -0.4 0.1 0.1
v -0.3 0.1 0.1
v -0.2 0.1 0.1
v 0.3 0.1 0.1
v 0.4 0.1 0.1
v 0.5 0.1 0.1
v -0.4 0.1 0
v -0.3 0.1 0
v 0.4 0.1 0
v 0.5 0.1 0
v -0.2 0.2 0.4
v -0.1 0.2 0.4
v 0.2 0.2 0.4
v 0.3 0.2 0.4
v -0.2 0.2 0.3
v -0.1 0.2 0.3
v 0.2 0.2 0.3
v 0.3 0.2 0.3
v -0.2 0.2 0.2
v -0.1 0.2 0.2
v 0.2 0.2 0.2
v 0.3 0.2 0.2
v -0.2 0.2 0.1
v -0.1 0.2 0.1
v 0.2 0.2 0.1
v 0.3 0.2 0.1
v -0.2 0.4 0.5
v -0.1 0.4 0.5
v 0.2 0.4 0.5
v 0.3 0.4 0.5
v -0.2 0.4 0.4
v -0.1 0.4 0.4
v 0.2 0.4 0.4
v 0.3 0.4 0.4
v -0.1 0.4 0.2
v 0 0.4 0.2
v 0.1 0.4 0.2
v 0.2 0.4 0.2
v -0.3 0.4 0.1
v -0.2 0.4 0.1
v -0.1 0.4 0.1
v 0 0.4 0.1
v 0.1 0.4 0.1
v 0.2 0.4 0.1
v 0.3 0.4 0.1
v 0.4 0.4 0.1
v -0.3 0.4 0
v -0.2 0.4 0
v 0.3 0.4 0
v 0.4 0.4 0
v 0 0.5 0.2
v 0.1 0.5 0.2
v -0.2 0.5 0.1
v 0 0.5 0.1
v 0.1 0.5 0.1
v 0.3 0.5 0.1
v -0.3 0.5 0
v -0.2 0.5 0
v 0.3 0.5 0
v 0.4 0.5 0
v -0.3 0.5 -0.6
v -0.2 0.5 -0.6
v 0.3 0.5 -0.6
v 0.4 0.5 -0.6
v -0.2 0.6 0
v 0.3 0.6 0
v -0.1 0.6 -0.2
v 0.2 0.6 -0.2
v -0.2 0.6 -0.3
v -0.1 0.6 -0.3
v 0.2 0.6 -0.3
v 0.3 0.6 -0.3
v -0.2 0.6 -0.4
v -0.1 0.6 -0.4
v 0.2 0.6 -0.4
v 0.3 0.6 -0.4
v -0.1 0.6 -0.5
v 0 0.6 -0.5
v 0.1 0.6 -0.5
v 0.2 0.6 -0.5
v -0.2 0.6 -0.6
v 0 0.6 -0.6
v 0.1 0.6 -0.6
v 0.3 0.6 -0.6
v -0.1 0.7 -0.2
v 0.2 0.7 -0.2
v -0.2 0.7 -0.3
v -0.1 0.7 -0.3
v 0.2 0.7 -0.3
v 0.3 0.7 -0.3
v -0.2 0.7 -0.4
v -0.1 0.7 -0.4
v 0.2 0.7 -0.4
v 0.3 0.7 -0.4
v -0.1 0.7 -0.5
v 0 0.7 -0.5
v 0.1 0.7 -0.5
v 0.2 0.7 -0.5
v 0 0.7 -0.6
v 0.1 0.7 -0.6

# faces
f 5/1/1 2/1/1 1/1/1
f 6/1/1 2/1/1 5/1/1
f 7/1/1 4/1/1 3/1/1
f 8/1/1 4/1/1 7/1/1
f 15/1/1 10/1/1 9/1/1
f 16/1/1 10/1/1 15/1/1
f 17/1/1 12/1/1 11/1/1
f 18/1/1 12/1/1 17/1/1
f 19/3/1 14/3/1 13/3/1
f 20/3/1 14/3/1 19/3/1
f 22/3/1 21/3/1 20/3/1
f 22/3/1 20/3/1 19/3/1
f 22/3/1 19/3/1 18/3/1
f 23/3/1 21/3/1 22/3/1
f 24/3/1 21/3/1 23/3/1
f 25/3/1 21/3/1 24/3/1
f 32/3/1 27/3/1 26/3/1
f 33/3/1 27/3/1 32/3/1
f 34/1/1 29/1/1 28/1/1
f 35/1/1 29/1/1 34/1/1
f 36/1/1 31/1/1 30/1/1
f 37/1/1 31/1/1 36/1/1
f 40/4/1 39/4/1 38/4/1
f 41/4/1 39/4/1 40/4/1
f 44/3/1 43/3/1 42/3/1
f 45/3/1 43/3/1 44/3/1
f 47/3/1 46/3/1 45/3/1
f 48/3/1 46/3/1 47/3/1
f 49/3/1 46/3/1 48/3/1
f 50/3/1 46/3/1 49/3/1
f 51/3/1 49/3/1 48/3/1
f 52/3/1 49/3/1 51/3/1
f 57/2/1 54/2/1 53/2/1
f 58/2/1 56/2/1 55/2/1
f 59/2/1 56/2/1 58/2/1
f 61/2/1 57/2/1 53/2/1
f 61/2/1 58/2/1 57/2/1
f 61/2/1 59/2/1 58/2/1
f 62/2/1 59/2/1 61/2/1
f 63/2/1 59/2/1 62/2/1
f 64/3/1 60/3/1 59/3/1
f 64/2/1 59/2/1 63/2/1
f 65/3/1 60/3/1 64/3/1
f 70/3/1 67/3/1 66/3/1
f 71/3/1 67/3/1 70/3/1
f 72/3/1 69/3/1 68/3/1
f 73/3/1 69/3/1 72/3/1
f 76/3/1 75/3/1 74/3/1
f 77/3/1 75/3/1 76/3/1
f 80/3/1 79/3/1 78/3/1
f 81/3/1 79/3/1 80/3/1
f 86/1/1 83/1/1 82/1/1
f 87/1/1 83/1/1 86/1/1
f 88/1/1 85/1/1 84/1/1
f 89/1/1 85/1/1 88/1/1
f 92/1/1 91/1/1 90/1/1
f 93/1/1 91/1/1 92/1/1
f 94/1/2 95/1/2 96/1/2
f 96/1/2 95/1/2 97/1/2
f 98/1/2 99/1/2 102/1/2
f 102/1/2 99/1/2 103/1/2
f 100/1/2 101/1/2 104/1/2
f 104/1/2 101/1/2 105/1/2
f 106/3/2 107/3/2 108/3/2
f 108/3/2 107/3/2 109/3/2
f 110/3/2 111/3/2 112/3/2
f 112/3/2 111/3/2 113/3/2
f 114/2/2 115/2/2 118/2/2
f 116/2/2 117/2/2 119/2/2
f 119/2/2 117/2/2 120/2/2
f 114/2/2 118/2/2 122/2/2
f 118/2/2 119/2/2 122/2/2
f 119/2/2 120/2/2 122/2/2
f 122/2/2 120/2/2 123/2/2
f 123/2/2 120/2/2 124/2/2
f 120/3/2 121/3/2 125/3/2
f 124/2/2 120/2/2 125/2/2
f 125/3/2 121/3/2 126/3/2
f 127/3/2 128/3/2 131/3/2
f 131/3/2 128/3/2 132/3/2
f 129/3/2 130/3/2 133/3/2
f 133/3/2 130/3/2 134/3/2
f 135/3/2 136/3/2 141/3/2
f 141/3/2 136/3/2 142/3/2
f 137/1/2 138/1/2 143/1/2
f 143/1/2 138/1/2 144/1/2
f 139/1/2 140/1/2 145/1/2
f 145/1/2 140/1/2 146/1/2
f 147/4/2 148/4/2 149/4/2
f 149/4/2 148/4/2 150/4/2
f 151/3/2 152/3/2 153/3/2
f 153/3/2 152/3/2 154/3/2
f 154/3/2 155/3/2 156/3/2
f 156/3/2 155/3/2 157/3/2
f 157/3/2 155/3/2 158/3/2
f 158/3/2 155/3/2 159/3/2
f 157/3/2 158/3/2 160/3/2
f 160/3/2 158/3/2 161/3/2
f 162/1/2 163/1/2 168/1/2
f 168/1/2 163/1/2 169/1/2
f 164/1/2 165/1/2 170/1/2
f 170/1/2 165/1/2 171/1/2
f 166/3/2 167/3/2 172/3/2
f 172/3/2 167/3/2 173/3/2
f 173/3/2 174/3/2 175/3/2
f 172/3/2 173/3/2 175/3/2
f 171/3/2 172/3/2 175/3/2
f 175/3/2 174/3/2 176/3/2
f 176/3/2 174/3/2 177/3/2
f 177/3/2 174/3/2 178/3/2
f 179/1/2 180/1/2 183/1/2
f 183/1/2 180/1/2 184/1/2
f 181/1/2 182/1/2 185/1/2
f 185/1/2 182/1/2 186/1/2
f 190/4/3 188/4/3 187/4/3
f 191/4/3 188/4/3 190/4/3
f 192/2/3 190/2/3 189/2/3
f 192/2/3 191/2/3 190/2/3
f 193/2/3 191/2/3 192/2/3
f 194/2/3 191/2/3 193/2/3
f 195/4/3 194/4/3 193/4/3
f 196/4/3 194/4/3 195/4/3
f 199/1/3 198/1/3 197/1/3
f 201/1/3 199/1/3 197/1/3
f 201/1/3 200/1/3 199/1/3
f 202/1/3 200/1/3 201/1/3
f 203/1/3 200/1/3 202/1/3
f 207/1/3 205/1/3 204/1/3
f 207/1/3 206/1/3 205/1/3
f 208/1/3 206/1/3 207/1/3
f 209/1/3 207/1/3 204/1/3
f 210/1/3 207/1/3 209/1/3
f 213/1/3 212/1/3 211/1/3
f 214/1/3 212/1/3 213/1/3
f 217/1/3 216/1/3 215/1/3
f 218/1/3 216/1/3 217/1/3
f 221/1/3 220/1/3 219/1/3
f 223/1/3 221/1/3 219/1/3
f 223/1/3 222/1/3 221/1/3
f 224/1/3 222/1/3 223/1/3
f 225/1/3 222/1/3 224/1/3
f 228/3/3 227/3/3 226/3/3
f 229/3/3 227/3/3 228/3/3
f 233/1/3 231/1/3 230/1/3
f 233/1/3 232/1/3 231/1/3
f 234/1/3 232/1/3 233/1/3
f 235/1/3 233/1/3 230/1/3
f 236/1/3 233/1/3 235/1/3
f 239/1/3 238/1/3 237/1/3
f 240/1/3 238/1/3 239/1/3
f 242/3/3 241/3/3 240/3/3
f 243/3/3 241/3/3 242/3/3
f 244/3/3 241/3/3 243/3/3
f 248/3/3 245/3/3 244/3/3
f 248/3/3 244/3/3 243/3/3
f 249/3/3 245/3/3 248/3/3
f 250/3/3 247/3/3 246/3/3
f 251/3/3 245/3/3 249/3/3
f 252/3/3 245/3/3 251/3/3
f 253/3/3 250/3/3 246/3/3
f 256/3/3 253/3/3 246/3/3
f 257/3/3 253/3/3 256/3/3
f 259/3/3 255/3/3 254/3/3
f 261/3/3 259/3/3 258/3/3
f 262/3/3 255/3/3 259/3/3
f 262/3/3 259/3/3 261/3/3
f 263/3/3 255/3/3 262/3/3
f 265/3/3 261/3/3 260/3/3
f 265/3/3 262/3/3 261/3/3
f 266/3/3 262/3/3 265/3/3
f 267/1/3 265/1/3 264/1/3
f 268/1/3 265/1/3 267/1/3
f 271/3/3 270/3/3 269/3/3
f 272/3/3 270/3/3 271/3/3
f 275/3/3 273/3/3 272/3/3
f 276/3/3 273/3/3 275/3/3
f 277/3/3 275/3/3 274/3/3
f 278/3/3 275/3/3 277/3/3
f 281/3/3 280/3/3 279/3/3
f 282/3/3 280/3/3 281/3/3
f 285/3/3 284/3/3 283/3/3
f 286/3/3 284/3/3 285/3/3
f 289/3/3 288/3/3 287/3/3
f 290/3/3 288/3/3 289/3/3
f 291/4/4 292/4/4 293/4/4
f 293/4/4 292/4/4 294/4/4
f 295/4/4 296/4/4 297/4/4
f 297/4/4 296/4/4 298/4/4
f 299/1/4 300/1/4 301/1/4
f 299/1/4 301/1/4 303/1/4
f 301/1/4 302/1/4 303/1/4
f 303/1/4 302/1/4 304/1/4
f 304/1/4 302/1/4 305/1/4
f 306/1/4 307/1/4 309/1/4
f 307/1/4 308/1/4 309/1/4
f 309/1/4 308/1/4 310/1/4
f 306/1/4 309/1/4 311/1/4
f 311/1/4 309/1/4 312/1/4
f 313/1/4 314/1/4 315/1/4
f 315/1/4 314/1/4 316/1/4
f 317/1/4 318/1/4 319/1/4
f 319/1/4 318/1/4 320/1/4
f 321/1/4 322/1/4 323/1/4
f 323/1/4 322/1/4 324/1/4
f 325/1/4 326/1/4 327/1/4
f 327/1/4 326/1/4 328/1/4
f 329/3/4 330/3/4 331/3/4
f 331/3/4 330/3/4 332/3/4
f 333/3/4 334/3/4 335/3/4
f 335/3/4 334/3/4 336/3/4
f 337/3/4 338/3/4 339/3/4
f 339/3/4 338/3/4 340/3/4
f 341/3/4 342/3/4 343/3/4
f 343/3/4 342/3/4 344/3/4
f 345/3/4 346/3/4 347/3/4
f 347/3/4 346/3/4 348/3/4
f 349/3/4 350/3/4 351/3/4
f 351/3/4 350/3/4 352/3/4
f 353/3/4 354/3/4 356/3/4
f 356/3/4 354/3/4 357/3/4
f 355/3/4 356/3/4 359/3/4
f 357/3/4 358/3/4 359/3/4
f 356/3/4 357/3/4 359/3/4
f 355/3/4 359/3/4 361/3/4
f 359/3/4 360/3/4 361/3/4
f 361/3/4 360/3/4 362/3/4
f 355/3/4 361/3/4 363/3/4
f 363/3/4 361/3/4 364/3/4
f 364/3/4 361/3/4 365/3/4
f 365/3/4 361/3/4 366/3/4
f 364/3/4 365/3/4 367/3/4
f 367/3/4 365/3/4 368/3/4
f 374/1/5 370/1/5 369/1/5
f 375/1/5 370/1/5 374/1/5
f 376/1/5 372/1/5 371/1/5
f 377/1/5 372/1/5 376/1/5
f 379/1/5 374/1/5 373/1/5
f 380/1/5 374/1/5 379/1/5
f 383/1/5 378/1/5 377/1/5
f 384/1/5 378/1/5 383/1/5
f 386/1/5 381/1/5 380/1/5
f 387/1/5 381/1/5 386/1/5
f 388/1/5 381/1/5 387/1/5
f 389/1/5 383/1/5 382/1/5
f 390/1/5 383/1/5 389/1/5
f 391/1/5 383/1/5 390/1/5
f 393/1/5 386/1/5 385/1/5
f 393/1/5 387/1/5 386/1/5
f 394/1/5 387/1/5 393/1/5
f 395/3/5 388/3/5 387/3/5
f 395/1/5 387/1/5 394/1/5
f 395/3/5 389/3/5 388/3/5
f 395/3/5 390/3/5 389/3/5
f 396/1/5 392/1/5 391/1/5
f 396/3/5 390/3/5 395/3/5
f 396/1/5 391/1/5 390/1/5
f 397/1/5 392/1/5 396/1/5
f 398/1/5 392/1/5 397/1/5
f 399/3/5 395/3/5 394/3/5
f 399/3/5 397/3/5 396/3/5
f 399/3/5 396/3/5 395/3/5
f 400/3/5 397/3/5 399/3/5
f 401/3/5 397/3/5 400/3/5
f 402/3/5 397/3/5 401/3/5
f 403/3/5 401/3/5 400/3/5
f 404/3/5 401/3/5 403/3/5
f 407/2/5 406/2/5 405/2/5
f 408/2/5 406/2/5 407/2/5
f 409/2/5 408/2/5 407/2/5
f 410/2/5 408/2/5 409/2/5
f 411/2/5 410/2/5 409/2/5
f 412/2/5 410/2/5 411/2/5
f 413/2/5 410/2/5 412/2/5
f 414/2/5 410/2/5 413/2/5
f 415/1/5 412/1/5 411/1/5
f 416/2/5 413/2/5 412/2/5
f 416/1/5 412/1/5 415/1/5
f 417/1/5 414/1/5 413/1/5
f 417/2/5 413/2/5 416/2/5
f 418/1/5 414/1/5 417/1/5
f 423/3/5 420/3/5 419/3/5
f 424/3/5 420/3/5 423/3/5
f 425/3/5 422/3/5 421/3/5
f 426/3/5 422/3/5 425/3/5
f 431/4/5 428/4/5 427/4/5
f 432/4/5 428/4/5 431/4/5
f 433/4/5 430/4/5 429/4/5
f 434/4/5 430/4/5 433/4/5
f 435/1/6 436/1/6 440/1/6
f 440/1/6 436/1/6 441/1/6
f 437/1/6 438/1/6 442/1/6
f 442/1/6 438/1/6 443/1/6
f 439/1/6 440/1/6 445/1/6
f 445/1/6 440/1/6 446/1/6
f 443/1/6 444/1/6 449/1/6
f 449/1/6 444/1/6 450/1/6
f 446/1/6 447/1/6 452/1/6
f 452/1/6 447/1/6 453/1/6
f 448/1/6 449/1/6 454/1/6
f 454/1/6 449/1/6 455/1/6
f 451/1/6 452/1/6 457/1/6
f 457/1/6 452/1/6 458/1/6
f 455/1/6 456/1/6 459/1/6
f 459/1/6 456/1/6 460/1/6
f 461/1/6 462/1/6 465/1/6
f 465/1/6 462/1/6 466/1/6
f 463/1/6 464/1/6 467/1/6
f 467/1/6 464/1/6 468/1/6
f 469/1/6 470/1/6 473/1/6
f 473/1/6 470/1/6 474/1/6
f 471/1/6 472/1/6 475/1/6
f 475/1/6 472/1/6 476/1/6
f 477/4/6 478/4/6 481/4/6
f 478/2/6 479/2/6 482/2/6
f 481/4/6 478/4/6 482/4/6
f 479/4/6 480/4/6 483/4/6
f 482/2/6 479/2/6 483/2/6
f 483/4/6 480/4/6 484/4/6
f 482/2/6 483/2/6 485/2/6
f 485/2/6 483/2/6 486/2/6
f 486/2/6 483/2/6 487/2/6
f 487/2/6 483/2/6 488/2/6
f 485/3/6 486/3/6 491/3/6
f 491/3/6 486/3/6 492/3/6
f 487/3/6 488/3/6 493/3/6
f 493/3/6 488/3/6 494/3/6
f 489/3/6 490/3/6 497/3/6
f 497/3/6 490/3/6 498/3/6
f 495/3/6 496/3/6 499/3/6
f 499/3/6 496/3/6 500/3/6
f 501/3/6 502/3/6 504/3/6
f 504/3/6 502/3/6 505/3/6
f 503/3/6 504/3/6 508/3/6
f 505/3/6 506/3/6 508/3/6
f 504/3/6 505/3/6 508/3/6
f 508/3/6 506/3/6 509/3/6
f 507/3/6 508/3/6 511/3/6
f 511/3/6 508/3/6 512/3/6
f 509/3/6 510/3/6 513/3/6
f 513/3/6 510/3/6 514/3/6
f 515/3/6 516/3/6 517/3/6
f 517/3/6 516/3/6 518/3/6
f 515/3/6 517/3/6 519/3/6
f 519/3/6 517/3/6 520/3/6
f 518/3/6 516/3/6 521/3/6
f 521/3/6 516/3/6 522/3/6
f 523/3/6 524/3/6 527/3/6
f 525/3/6 526/3/6 530/3/6
f 527/3/6 528/3/6 531/3/6
f 523/3/6 527/3/6 531/3/6
f 531/3/6 528/3/6 532/3/6
f 529/3/6 530/3/6 533/3/6
f 530/3/6 526/3/6 534/3/6
f 533/3/6 530/3/6 534/3/6
f 535/3/6 536/3/6 538/3/6
f 538/3/6 536/3/6 539/3/6
f 537/3/6 538/3/6 541/3/6
f 539/3/6 540/3/6 541/3/6
f 538/3/6 539/3/6 541/3/6
f 541/3/6 540/3/6 542/3/6
f 542/3/6 540/3/6 543/3/6
f 543/3/6 540/3/6 544/3/6
f 542/3/6 543/3/6 545/3/6
f 545/3/6 543/3/6 546/3/6
f 546/3/6 543/3/6 547/3/6
f 547/3/6 543/3/6 548/3/6
f 546/3/6 547/3/6 549/3/6
f 549/3/6 547/3/6 550/3/6
