# MagicaVoxel @ Ephtracy

# group
o 

# material
mtllib Idle0.mtl
usemtl palette

# normals
vn -1 0 0
vn 1 0 0
vn 0 0 1
vn 0 0 -1
vn 0 -1 0
vn 0 1 0

# texcoords
vt 0.341797 0.5
vt 0.365234 0.5
vt 0.369141 0.5
vt 0.373047 0.5
vt 0.392578 0.5
vt 0.845703 0.5
vt 0.955078 0.5

# verts
v 0.1 0.8 -0.2
v 0.1 0.8 -0.3
v 0.1 0.8 -0.4
v 0.1 0.9 -0.3
v 0.1 0.9 -0.4
v 0.1 1 -0.2
v 0.1 1 -0.4
v 0.2 0.4 -0.3
v 0.2 0.4 -0.4
v 0.2 0.4 -0.9
v 0.2 0.4 -1
v 0.2 0.5 -1
v 0.2 0.5 -1.1
v 0.2 0.6 -1
v 0.2 0.6 -1.1
v 0.2 0.7 -0.4
v 0.2 0.7 -0.5
v 0.2 0.7 -0.6
v 0.2 0.7 -0.7
v 0.2 0.7 -0.8
v 0.2 0.7 -0.9
v 0.2 0.8 -0.1
v 0.2 0.8 -0.2
v 0.2 0.8 -0.3
v 0.2 0.8 -0.4
v 0.2 0.8 -0.5
v 0.2 0.8 -0.6
v 0.2 0.8 -0.7
v 0.2 0.8 -0.8
v 0.2 0.9 -0.1
v 0.2 0.9 -0.2
v 0.2 0.9 -0.4
v 0.2 0.9 -0.5
v 0.2 0.9 -0.6
v 0.2 0.9 -0.7
v 0.2 0.9 -0.9
v 0.2 0.9 -1
v 0.2 1 -0.1
v 0.2 1 -0.2
v 0.2 1 -0.4
v 0.2 1 -0.5
v 0.2 1 -0.9
v 0.2 1.1 -0.1
v 0.2 1.1 -0.2
v 0.2 1.1 -0.4
v 0.2 1.1 -0.5
v 0.2 1.2 -0.2
v 0.2 1.2 -0.4
v 0.2 1.3 -0.1
v 0.2 1.3 -0.2
v 0.3 0.6 -1
v 0.3 0.6 -1.1
v 0.3 0.8 -1
v 0.3 0.8 -1.1
v 0.4 0.8 -1
v 0.4 0.8 -1.1
v 0.4 0.9 -1
v 0.4 0.9 -1.1
v 0.5 0.4 -0.3
v 0.5 0.4 -0.4
v 0.5 0.4 -0.9
v 0.5 0.4 -1
v 0.5 0.7 -0.3
v 0.5 0.7 -0.4
v 0.5 0.7 -0.9
v 0.5 0.7 -1
v 0.5 1.1 -0.1
v 0.5 1.1 -0.2
v 0.5 1.2 -0.2
v 0.5 1.3 -0.1
v 0.5 1.3 -0.2
v 0.3 0.4 -0.3
v 0.3 0.4 -0.4
v 0.3 0.4 -0.9
v 0.3 0.4 -1
v 0.3 0.5 -1
v 0.3 0.5 -1.1
v 0.3 0.6 -1
v 0.3 0.6 -1.1
v 0.3 0.7 -0.3
v 0.3 0.7 -0.4
v 0.3 0.7 -0.9
v 0.3 0.7 -1
v 0.3 1.1 -0.1
v 0.3 1.1 -0.2
v 0.3 1.2 -0.2
v 0.3 1.3 -0.1
v 0.3 1.3 -0.2
v 0.4 0.6 -1
v 0.4 0.6 -1.1
v 0.4 0.7 -1
v 0.4 0.8 -1
v 0.4 0.8 -1.1
v 0.5 0.8 -1
v 0.5 0.8 -1.1
v 0.5 0.9 -1
v 0.5 0.9 -1.1
v 0.6 0.4 -0.3
v 0.6 0.4 -0.4
v 0.6 0.4 -0.9
v 0.6 0.4 -1
v 0.6 0.7 -0.4
v 0.6 0.7 -0.6
v 0.6 0.7 -0.7
v 0.6 0.7 -0.9
v 0.6 0.8 -0.1
v 0.6 0.8 -0.2
v 0.6 0.8 -0.3
v 0.6 0.8 -0.4
v 0.6 0.8 -0.6
v 0.6 0.8 -0.7
v 0.6 0.8 -0.8
v 0.6 0.9 -0.1
v 0.6 0.9 -0.2
v 0.6 0.9 -0.4
v 0.6 0.9 -0.5
v 0.6 0.9 -0.7
v 0.6 0.9 -0.8
v 0.6 0.9 -0.9
v 0.6 0.9 -1
v 0.6 1 -0.1
v 0.6 1 -0.2
v 0.6 1 -0.4
v 0.6 1 -0.5
v 0.6 1 -0.9
v 0.6 1.1 -0.1
v 0.6 1.1 -0.2
v 0.6 1.1 -0.4
v 0.6 1.1 -0.5
v 0.6 1.2 -0.2
v 0.6 1.2 -0.4
v 0.6 1.3 -0.1
v 0.6 1.3 -0.2
v 0.7 0.8 -0.2
v 0.7 0.8 -0.3
v 0.7 0.8 -0.4
v 0.7 0.9 -0.3
v 0.7 0.9 -0.4
v 0.7 1 -0.2
v 0.7 1 -0.4
v 0.2 0.8 -0.1
v 0.2 0.9 -0.1
v 0.2 1 -0.1
v 0.2 1.1 -0.1
v 0.2 1.3 -0.1
v 0.3 0.8 -0.1
v 0.3 0.9 -0.1
v 0.3 1 -0.1
v 0.3 1.1 -0.1
v 0.3 1.3 -0.1
v 0.5 0.8 -0.1
v 0.5 0.9 -0.1
v 0.5 1 -0.1
v 0.5 1.1 -0.1
v 0.5 1.3 -0.1
v 0.6 0.8 -0.1
v 0.6 0.9 -0.1
v 0.6 1 -0.1
v 0.6 1.1 -0.1
v 0.6 1.3 -0.1
v 0.1 0.8 -0.2
v 0.1 1 -0.2
v 0.2 0.8 -0.2
v 0.2 0.9 -0.2
v 0.2 1 -0.2
v 0.3 1.1 -0.2
v 0.3 1.2 -0.2
v 0.5 1.1 -0.2
v 0.5 1.2 -0.2
v 0.6 0.8 -0.2
v 0.6 0.9 -0.2
v 0.6 1 -0.2
v 0.7 0.8 -0.2
v 0.7 1 -0.2
v 0.2 0.4 -0.3
v 0.2 0.8 -0.3
v 0.3 0.4 -0.3
v 0.3 0.7 -0.3
v 0.5 0.4 -0.3
v 0.5 0.7 -0.3
v 0.6 0.4 -0.3
v 0.6 0.8 -0.3
v 0.2 0.4 -0.9
v 0.2 0.7 -0.9
v 0.3 0.4 -0.9
v 0.3 0.7 -0.9
v 0.5 0.4 -0.9
v 0.5 0.7 -0.9
v 0.6 0.4 -0.9
v 0.6 0.7 -0.9
v 0.3 0.6 -1
v 0.3 0.7 -1
v 0.4 0.6 -1
v 0.4 0.7 -1
v 0.2 1.2 -0.2
v 0.2 1.3 -0.2
v 0.3 1.2 -0.2
v 0.3 1.3 -0.2
v 0.5 1.2 -0.2
v 0.5 1.3 -0.2
v 0.6 1.2 -0.2
v 0.6 1.3 -0.2
v 0.1 0.8 -0.4
v 0.1 0.9 -0.4
v 0.1 1 -0.4
v 0.2 0.4 -0.4
v 0.2 0.7 -0.4
v 0.2 0.8 -0.4
v 0.2 0.9 -0.4
v 0.2 1 -0.4
v 0.2 1.1 -0.4
v 0.2 1.2 -0.4
v 0.3 0.4 -0.4
v 0.3 0.7 -0.4
v 0.5 0.4 -0.4
v 0.5 0.7 -0.4
v 0.6 0.4 -0.4
v 0.6 0.7 -0.4
v 0.6 0.8 -0.4
v 0.6 0.9 -0.4
v 0.6 1 -0.4
v 0.6 1.1 -0.4
v 0.6 1.2 -0.4
v 0.7 0.8 -0.4
v 0.7 0.9 -0.4
v 0.7 1 -0.4
v 0.2 1 -0.5
v 0.2 1.1 -0.5
v 0.6 1 -0.5
v 0.6 1.1 -0.5
v 0.2 0.9 -0.9
v 0.2 1 -0.9
v 0.6 0.9 -0.9
v 0.6 1 -0.9
v 0.2 0.4 -1
v 0.2 0.5 -1
v 0.2 0.6 -1
v 0.2 0.9 -1
v 0.3 0.4 -1
v 0.3 0.5 -1
v 0.3 0.6 -1
v 0.3 0.8 -1
v 0.4 0.7 -1
v 0.4 0.8 -1
v 0.4 0.9 -1
v 0.5 0.4 -1
v 0.5 0.7 -1
v 0.5 0.8 -1
v 0.5 0.9 -1
v 0.6 0.4 -1
v 0.6 0.9 -1
v 0.2 0.5 -1.1
v 0.2 0.6 -1.1
v 0.3 0.5 -1.1
v 0.3 0.6 -1.1
v 0.3 0.8 -1.1
v 0.4 0.6 -1.1
v 0.4 0.8 -1.1
v 0.4 0.9 -1.1
v 0.5 0.8 -1.1
v 0.5 0.9 -1.1
v 0.2 0.4 -0.3
v 0.3 0.4 -0.3
v 0.5 0.4 -0.3
v 0.6 0.4 -0.3
v 0.2 0.4 -0.4
v 0.3 0.4 -0.4
v 0.5 0.4 -0.4
v 0.6 0.4 -0.4
v 0.2 0.4 -0.9
v 0.3 0.4 -0.9
v 0.5 0.4 -0.9
v 0.6 0.4 -0.9
v 0.2 0.4 -1
v 0.3 0.4 -1
v 0.5 0.4 -1
v 0.6 0.4 -1
v 0.2 0.5 -1
v 0.3 0.5 -1
v 0.2 0.5 -1.1
v 0.3 0.5 -1.1
v 0.3 0.6 -1
v 0.4 0.6 -1
v 0.3 0.6 -1.1
v 0.4 0.6 -1.1
v 0.3 0.7 -0.3
v 0.5 0.7 -0.3
v 0.2 0.7 -0.4
v 0.3 0.7 -0.4
v 0.5 0.7 -0.4
v 0.6 0.7 -0.4
v 0.2 0.7 -0.5
v 0.3 0.7 -0.5
v 0.2 0.7 -0.6
v 0.3 0.7 -0.6
v 0.5 0.7 -0.6
v 0.6 0.7 -0.6
v 0.2 0.7 -0.7
v 0.3 0.7 -0.7
v 0.5 0.7 -0.7
v 0.6 0.7 -0.7
v 0.2 0.7 -0.8
v 0.3 0.7 -0.8
v 0.2 0.7 -0.9
v 0.3 0.7 -0.9
v 0.5 0.7 -0.9
v 0.6 0.7 -0.9
v 0.3 0.7 -1
v 0.4 0.7 -1
v 0.5 0.7 -1
v 0.2 0.8 -0.1
v 0.3 0.8 -0.1
v 0.5 0.8 -0.1
v 0.6 0.8 -0.1
v 0.1 0.8 -0.2
v 0.2 0.8 -0.2
v 0.3 0.8 -0.2
v 0.5 0.8 -0.2
v 0.6 0.8 -0.2
v 0.7 0.8 -0.2
v 0.1 0.8 -0.3
v 0.2 0.8 -0.3
v 0.6 0.8 -0.3
v 0.7 0.8 -0.3
v 0.1 0.8 -0.4
v 0.2 0.8 -0.4
v 0.6 0.8 -0.4
v 0.7 0.8 -0.4
v 0.4 0.8 -1
v 0.5 0.8 -1
v 0.4 0.8 -1.1
v 0.5 0.8 -1.1
v 0.2 0.6 -1
v 0.3 0.6 -1
v 0.2 0.6 -1.1
v 0.3 0.6 -1.1
v 0.3 0.8 -1
v 0.4 0.8 -1
v 0.3 0.8 -1.1
v 0.4 0.8 -1.1
v 0.2 0.9 -0.9
v 0.6 0.9 -0.9
v 0.2 0.9 -1
v 0.4 0.9 -1
v 0.5 0.9 -1
v 0.6 0.9 -1
v 0.4 0.9 -1.1
v 0.5 0.9 -1.1
v 0.1 1 -0.2
v 0.2 1 -0.2
v 0.6 1 -0.2
v 0.7 1 -0.2
v 0.1 1 -0.4
v 0.2 1 -0.4
v 0.6 1 -0.4
v 0.7 1 -0.4
v 0.2 1 -0.5
v 0.6 1 -0.5
v 0.2 1 -0.9
v 0.6 1 -0.9
v 0.3 1.1 -0.1
v 0.5 1.1 -0.1
v 0.3 1.1 -0.2
v 0.5 1.1 -0.2
v 0.2 1.1 -0.4
v 0.6 1.1 -0.4
v 0.2 1.1 -0.5
v 0.6 1.1 -0.5
v 0.2 1.2 -0.2
v 0.3 1.2 -0.2
v 0.5 1.2 -0.2
v 0.6 1.2 -0.2
v 0.2 1.2 -0.4
v 0.6 1.2 -0.4
v 0.2 1.3 -0.1
v 0.3 1.3 -0.1
v 0.5 1.3 -0.1
v 0.6 1.3 -0.1
v 0.2 1.3 -0.2
v 0.3 1.3 -0.2
v 0.5 1.3 -0.2
v 0.6 1.3 -0.2

# faces
f 4/3/1 2/3/1 1/3/1
f 4/2/1 3/2/1 2/2/1
f 5/2/1 3/2/1 4/2/1
f 6/3/1 4/3/1 1/3/1
f 6/3/1 5/3/1 4/3/1
f 7/3/1 5/3/1 6/3/1
f 12/3/1 11/3/1 10/3/1
f 14/3/1 12/3/1 10/3/1
f 14/5/1 13/5/1 12/5/1
f 15/5/1 13/5/1 14/5/1
f 16/3/1 9/3/1 8/3/1
f 21/3/1 14/3/1 10/3/1
f 24/3/1 16/3/1 8/3/1
f 25/2/1 17/2/1 16/2/1
f 25/3/1 16/3/1 24/3/1
f 26/3/1 18/3/1 17/3/1
f 26/2/1 17/2/1 25/2/1
f 27/2/1 19/2/1 18/2/1
f 27/3/1 18/3/1 26/3/1
f 28/1/1 20/1/1 19/1/1
f 28/2/1 19/2/1 27/2/1
f 29/3/1 21/3/1 20/3/1
f 29/1/1 20/1/1 28/1/1
f 30/3/1 23/3/1 22/3/1
f 31/3/1 23/3/1 30/3/1
f 32/3/1 26/3/1 25/3/1
f 33/1/1 27/1/1 26/1/1
f 33/3/1 26/3/1 32/3/1
f 34/2/1 28/2/1 27/2/1
f 34/1/1 27/1/1 33/1/1
f 35/3/1 29/3/1 28/3/1
f 35/2/1 28/2/1 34/2/1
f 36/3/1 21/3/1 29/3/1
f 36/3/1 29/3/1 35/3/1
f 36/3/1 14/3/1 21/3/1
f 37/3/1 14/3/1 36/3/1
f 38/7/1 31/7/1 30/7/1
f 39/7/1 31/7/1 38/7/1
f 40/3/1 33/3/1 32/3/1
f 41/4/1 35/4/1 34/4/1
f 41/4/1 34/4/1 33/4/1
f 41/3/1 33/3/1 40/3/1
f 41/4/1 36/4/1 35/4/1
f 42/4/1 36/4/1 41/4/1
f 43/3/1 40/3/1 39/3/1
f 43/3/1 39/3/1 38/3/1
f 44/3/1 40/3/1 43/3/1
f 45/4/1 41/4/1 40/4/1
f 45/3/1 40/3/1 44/3/1
f 46/4/1 41/4/1 45/4/1
f 47/4/1 44/4/1 43/4/1
f 47/3/1 45/3/1 44/3/1
f 48/3/1 45/3/1 47/3/1
f 49/4/1 47/4/1 43/4/1
f 50/4/1 47/4/1 49/4/1
f 53/5/1 52/5/1 51/5/1
f 54/5/1 52/5/1 53/5/1
f 57/5/1 56/5/1 55/5/1
f 58/5/1 56/5/1 57/5/1
f 63/3/1 60/3/1 59/3/1
f 64/3/1 60/3/1 63/3/1
f 65/3/1 62/3/1 61/3/1
f 66/3/1 62/3/1 65/3/1
f 69/4/1 68/4/1 67/4/1
f 70/4/1 69/4/1 67/4/1
f 71/4/1 69/4/1 70/4/1
f 74/3/2 75/3/2 76/3/2
f 74/3/2 76/3/2 78/3/2
f 76/5/2 77/5/2 78/5/2
f 78/5/2 77/5/2 79/5/2
f 72/3/2 73/3/2 80/3/2
f 80/3/2 73/3/2 81/3/2
f 74/3/2 78/3/2 82/3/2
f 82/3/2 78/3/2 83/3/2
f 84/4/2 85/4/2 86/4/2
f 84/4/2 86/4/2 87/4/2
f 87/4/2 86/4/2 88/4/2
f 89/5/2 90/5/2 91/5/2
f 91/5/2 90/5/2 92/5/2
f 92/5/2 90/5/2 93/5/2
f 94/5/2 95/5/2 96/5/2
f 96/5/2 95/5/2 97/5/2
f 98/3/2 99/3/2 102/3/2
f 100/3/2 101/3/2 105/3/2
f 98/3/2 102/3/2 108/3/2
f 102/3/2 103/3/2 108/3/2
f 108/3/2 103/3/2 109/3/2
f 103/1/2 104/1/2 110/1/2
f 109/3/2 103/3/2 110/3/2
f 104/3/2 105/3/2 111/3/2
f 110/1/2 104/1/2 111/1/2
f 111/3/2 105/3/2 112/3/2
f 106/3/2 107/3/2 113/3/2
f 113/3/2 107/3/2 114/3/2
f 109/3/2 110/3/2 115/3/2
f 110/3/2 111/3/2 115/3/2
f 115/3/2 111/3/2 116/3/2
f 111/2/2 112/2/2 117/2/2
f 116/3/2 111/3/2 117/3/2
f 112/3/2 105/3/2 118/3/2
f 117/2/2 112/2/2 118/2/2
f 105/3/2 101/3/2 119/3/2
f 118/3/2 105/3/2 119/3/2
f 119/3/2 101/3/2 120/3/2
f 113/7/2 114/7/2 121/7/2
f 121/7/2 114/7/2 122/7/2
f 115/3/2 116/3/2 123/3/2
f 116/4/2 117/4/2 124/4/2
f 117/4/2 118/4/2 124/4/2
f 123/3/2 116/3/2 124/3/2
f 118/4/2 119/4/2 124/4/2
f 124/4/2 119/4/2 125/4/2
f 122/3/2 123/3/2 126/3/2
f 121/3/2 122/3/2 126/3/2
f 126/3/2 123/3/2 127/3/2
f 123/4/2 124/4/2 128/4/2
f 127/3/2 123/3/2 128/3/2
f 128/4/2 124/4/2 129/4/2
f 126/4/2 127/4/2 130/4/2
f 127/3/2 128/3/2 130/3/2
f 130/3/2 128/3/2 131/3/2
f 126/4/2 130/4/2 132/4/2
f 132/4/2 130/4/2 133/4/2
f 134/3/2 135/3/2 137/3/2
f 135/2/2 136/2/2 137/2/2
f 137/2/2 136/2/2 138/2/2
f 134/3/2 137/3/2 139/3/2
f 137/3/2 138/3/2 139/3/2
f 139/3/2 138/3/2 140/3/2
f 146/3/3 142/3/3 141/3/3
f 147/7/3 143/7/3 142/7/3
f 147/3/3 142/3/3 146/3/3
f 148/3/3 144/3/3 143/3/3
f 148/7/3 143/7/3 147/7/3
f 149/4/3 145/4/3 144/4/3
f 149/3/3 144/3/3 148/3/3
f 150/4/3 145/4/3 149/4/3
f 151/6/3 147/6/3 146/6/3
f 152/3/3 148/3/3 147/3/3
f 152/6/3 147/6/3 151/6/3
f 152/3/3 149/3/3 148/3/3
f 153/3/3 149/3/3 152/3/3
f 154/3/3 149/3/3 153/3/3
f 156/3/3 152/3/3 151/3/3
f 157/7/3 153/7/3 152/7/3
f 157/3/3 152/3/3 156/3/3
f 158/3/3 154/3/3 153/3/3
f 158/7/3 153/7/3 157/7/3
f 159/4/3 155/4/3 154/4/3
f 159/3/3 154/3/3 158/3/3
f 160/4/3 155/4/3 159/4/3
f 163/3/3 162/3/3 161/3/3
f 164/3/3 162/3/3 163/3/3
f 165/3/3 162/3/3 164/3/3
f 168/3/3 167/3/3 166/3/3
f 169/3/3 167/3/3 168/3/3
f 173/3/3 171/3/3 170/3/3
f 173/3/3 172/3/3 171/3/3
f 174/3/3 172/3/3 173/3/3
f 177/3/3 176/3/3 175/3/3
f 178/3/3 176/3/3 177/3/3
f 180/3/3 176/3/3 178/3/3
f 181/3/3 180/3/3 179/3/3
f 182/3/3 176/3/3 180/3/3
f 182/3/3 180/3/3 181/3/3
f 185/3/3 184/3/3 183/3/3
f 186/3/3 184/3/3 185/3/3
f 189/3/3 188/3/3 187/3/3
f 190/3/3 188/3/3 189/3/3
f 193/5/3 192/5/3 191/5/3
f 194/5/3 192/5/3 193/5/3
f 195/4/4 196/4/4 197/4/4
f 197/4/4 196/4/4 198/4/4
f 199/4/4 200/4/4 201/4/4
f 201/4/4 200/4/4 202/4/4
f 203/2/4 204/2/4 208/2/4
f 204/3/4 205/3/4 209/3/4
f 208/2/4 204/2/4 209/2/4
f 209/3/4 205/3/4 210/3/4
f 206/3/4 207/3/4 213/3/4
f 213/3/4 207/3/4 214/3/4
f 215/3/4 216/3/4 217/3/4
f 217/3/4 216/3/4 218/3/4
f 211/3/4 212/3/4 222/3/4
f 222/3/4 212/3/4 223/3/4
f 219/2/4 220/2/4 224/2/4
f 220/3/4 221/3/4 225/3/4
f 224/2/4 220/2/4 225/2/4
f 225/3/4 221/3/4 226/3/4
f 227/4/4 228/4/4 229/4/4
f 229/4/4 228/4/4 230/4/4
f 231/4/4 232/4/4 233/4/4
f 233/4/4 232/4/4 234/4/4
f 235/3/4 236/3/4 239/3/4
f 239/3/4 236/3/4 240/3/4
f 237/3/4 238/3/4 241/3/4
f 241/3/4 238/3/4 242/3/4
f 242/3/4 238/3/4 244/3/4
f 244/3/4 238/3/4 245/3/4
f 243/3/4 244/3/4 247/3/4
f 247/3/4 244/3/4 248/3/4
f 246/3/4 247/3/4 250/3/4
f 248/3/4 249/3/4 250/3/4
f 247/3/4 248/3/4 250/3/4
f 250/3/4 249/3/4 251/3/4
f 252/5/4 253/5/4 254/5/4
f 254/5/4 253/5/4 255/5/4
f 255/5/4 256/5/4 257/5/4
f 257/5/4 256/5/4 258/5/4
f 258/5/4 259/5/4 260/5/4
f 260/5/4 259/5/4 261/5/4
f 266/3/5 263/3/5 262/3/5
f 267/3/5 263/3/5 266/3/5
f 268/3/5 265/3/5 264/3/5
f 269/3/5 265/3/5 268/3/5
f 274/3/5 271/3/5 270/3/5
f 275/3/5 271/3/5 274/3/5
f 276/3/5 273/3/5 272/3/5
f 277/3/5 273/3/5 276/3/5
f 280/5/5 279/5/5 278/5/5
f 281/5/5 279/5/5 280/5/5
f 284/5/5 283/5/5 282/5/5
f 285/5/5 283/5/5 284/5/5
f 289/3/5 287/3/5 286/3/5
f 290/3/5 287/3/5 289/3/5
f 292/2/5 289/2/5 288/2/5
f 293/3/5 291/3/5 290/3/5
f 293/2/5 289/2/5 292/2/5
f 293/3/5 290/3/5 289/3/5
f 294/3/5 293/3/5 292/3/5
f 295/3/5 291/3/5 293/3/5
f 295/3/5 293/3/5 294/3/5
f 296/3/5 291/3/5 295/3/5
f 297/3/5 291/3/5 296/3/5
f 298/2/5 295/2/5 294/2/5
f 299/3/5 296/3/5 295/3/5
f 299/2/5 295/2/5 298/2/5
f 300/1/5 297/1/5 296/1/5
f 300/3/5 296/3/5 299/3/5
f 301/1/5 297/1/5 300/1/5
f 302/1/5 299/1/5 298/1/5
f 303/3/5 300/3/5 299/3/5
f 303/1/5 299/1/5 302/1/5
f 303/3/5 301/3/5 300/3/5
f 304/3/5 303/3/5 302/3/5
f 305/3/5 301/3/5 303/3/5
f 305/3/5 303/3/5 304/3/5
f 306/3/5 301/3/5 305/3/5
f 307/3/5 301/3/5 306/3/5
f 308/3/5 306/3/5 305/3/5
f 309/3/5 306/3/5 308/3/5
f 310/3/5 306/3/5 309/3/5
f 316/3/5 312/3/5 311/3/5
f 317/6/5 313/6/5 312/6/5
f 317/3/5 312/3/5 316/3/5
f 318/3/5 314/3/5 313/3/5
f 318/6/5 313/6/5 317/6/5
f 319/3/5 314/3/5 318/3/5
f 321/3/5 317/3/5 316/3/5
f 321/3/5 320/3/5 319/3/5
f 321/3/5 319/3/5 318/3/5
f 321/3/5 318/3/5 317/3/5
f 321/3/5 316/3/5 315/3/5
f 322/3/5 320/3/5 321/3/5
f 323/3/5 320/3/5 322/3/5
f 324/3/5 320/3/5 323/3/5
f 325/2/5 322/2/5 321/2/5
f 326/2/5 322/2/5 325/2/5
f 327/2/5 324/2/5 323/2/5
f 328/2/5 324/2/5 327/2/5
f 331/5/5 330/5/5 329/5/5
f 332/5/5 330/5/5 331/5/5
f 333/5/6 334/5/6 335/5/6
f 335/5/6 334/5/6 336/5/6
f 337/5/6 338/5/6 339/5/6
f 339/5/6 338/5/6 340/5/6
f 341/3/6 342/3/6 343/3/6
f 343/3/6 342/3/6 344/3/6
f 344/3/6 342/3/6 345/3/6
f 345/3/6 342/3/6 346/3/6
f 344/5/6 345/5/6 347/5/6
f 347/5/6 345/5/6 348/5/6
f 349/3/6 350/3/6 353/3/6
f 353/3/6 350/3/6 354/3/6
f 351/3/6 352/3/6 355/3/6
f 355/3/6 352/3/6 356/3/6
f 357/4/6 358/4/6 359/4/6
f 359/4/6 358/4/6 360/4/6
f 361/3/6 362/3/6 363/3/6
f 363/3/6 362/3/6 364/3/6
f 365/4/6 366/4/6 367/4/6
f 367/4/6 366/4/6 368/4/6
f 369/3/6 370/3/6 373/3/6
f 371/3/6 372/3/6 373/3/6
f 370/3/6 371/3/6 373/3/6
f 373/3/6 372/3/6 374/3/6
f 375/4/6 376/4/6 379/4/6
f 379/4/6 376/4/6 380/4/6
f 377/4/6 378/4/6 381/4/6
f 381/4/6 378/4/6 382/4/6
