# MagicaVoxel @ Ephtracy

# group
o 

# material
mtllib Run0.mtl
usemtl palette

# normals
vn -1 0 0
vn 1 0 0
vn 0 0 1
vn 0 0 -1
vn 0 -1 0
vn 0 1 0

# texcoords
vt 0.341797 0.5
vt 0.365234 0.5
vt 0.369141 0.5
vt 0.373047 0.5
vt 0.392578 0.5
vt 0.845703 0.5
vt 0.955078 0.5

# verts
v -0.3 0.4 0.4
v -0.3 0.4 0.3
v -0.3 0.4 0.2
v -0.3 0.5 0.3
v -0.3 0.5 0.2
v -0.3 0.6 0.4
v -0.3 0.6 0.2
v -0.2 0.1 0.5
v -0.2 0.1 0.4
v -0.2 0.1 -0.5
v -0.2 0.1 -0.6
v -0.2 0.2 0.5
v -0.2 0.2 0.4
v -0.2 0.2 0.2
v -0.2 0.2 -0.3
v -0.2 0.2 -0.5
v -0.2 0.2 -0.6
v -0.2 0.3 0.4
v -0.2 0.3 0.3
v -0.2 0.3 0.2
v -0.2 0.3 0.1
v -0.2 0.3 0
v -0.2 0.3 -0.1
v -0.2 0.3 -0.2
v -0.2 0.3 -0.3
v -0.2 0.3 -0.4
v -0.2 0.3 -0.5
v -0.2 0.4 0.5
v -0.2 0.4 0.4
v -0.2 0.4 0.3
v -0.2 0.4 0.2
v -0.2 0.4 0.1
v -0.2 0.4 0
v -0.2 0.4 -0.1
v -0.2 0.4 -0.2
v -0.2 0.5 0.5
v -0.2 0.5 0.4
v -0.2 0.5 0.2
v -0.2 0.5 0.1
v -0.2 0.5 0
v -0.2 0.5 -0.1
v -0.2 0.5 -0.3
v -0.2 0.5 -0.4
v -0.2 0.6 0.5
v -0.2 0.6 0.4
v -0.2 0.6 0.2
v -0.2 0.6 0.1
v -0.2 0.6 -0.3
v -0.2 0.7 0.5
v -0.2 0.7 0.4
v -0.2 0.7 0.2
v -0.2 0.7 0.1
v -0.2 0.8 0.4
v -0.2 0.8 0.2
v -0.2 0.9 0.5
v -0.2 0.9 0.4
v -0.1 0.1 -0.4
v -0.1 0.1 -0.5
v -0.1 0.2 -0.4
v -0.1 0.2 -0.5
v -0.1 0.3 -0.4
v -0.1 0.3 -0.5
v -0.1 0.4 -0.4
v -0.1 0.4 -0.5
v 0 0.4 -0.4
v 0 0.4 -0.5
v 0 0.5 -0.4
v 0 0.5 -0.5
v 0.1 0.1 0.5
v 0.1 0.1 0.4
v 0.1 0.1 -0.5
v 0.1 0.1 -0.6
v 0.1 0.2 0.5
v 0.1 0.2 0.4
v 0.1 0.2 0.2
v 0.1 0.2 -0.3
v 0.1 0.2 -0.5
v 0.1 0.2 -0.6
v 0.1 0.3 0.4
v 0.1 0.3 0.3
v 0.1 0.3 0.2
v 0.1 0.3 -0.3
v 0.1 0.3 -0.4
v 0.1 0.3 -0.5
v 0.1 0.7 0.5
v 0.1 0.7 0.4
v 0.1 0.8 0.4
v 0.1 0.9 0.5
v 0.1 0.9 0.4
v -0.1 0.1 0.5
v -0.1 0.1 0.4
v -0.1 0.1 -0.5
v -0.1 0.1 -0.6
v -0.1 0.2 0.5
v -0.1 0.2 0.4
v -0.1 0.2 0.2
v -0.1 0.2 -0.3
v -0.1 0.2 -0.4
v -0.1 0.2 -0.5
v -0.1 0.2 -0.6
v -0.1 0.3 0.4
v -0.1 0.3 0.3
v -0.1 0.3 0.2
v -0.1 0.3 -0.3
v -0.1 0.3 -0.4
v -0.1 0.7 0.5
v -0.1 0.7 0.4
v -0.1 0.8 0.4
v -0.1 0.9 0.5
v -0.1 0.9 0.4
v 0 0.1 -0.4
v 0 0.1 -0.5
v 0 0.3 -0.4
v 0 0.4 -0.4
v 0 0.4 -0.5
v 0.1 0.4 -0.4
v 0.1 0.4 -0.5
v 0.1 0.5 -0.4
v 0.1 0.5 -0.5
v 0.2 0.1 0.5
v 0.2 0.1 0.4
v 0.2 0.1 -0.5
v 0.2 0.1 -0.6
v 0.2 0.2 0.5
v 0.2 0.2 0.4
v 0.2 0.2 0.2
v 0.2 0.2 -0.3
v 0.2 0.2 -0.5
v 0.2 0.2 -0.6
v 0.2 0.3 0.4
v 0.2 0.3 0.3
v 0.2 0.3 0.2
v 0.2 0.3 0
v 0.2 0.3 -0.1
v 0.2 0.3 -0.3
v 0.2 0.3 -0.4
v 0.2 0.3 -0.5
v 0.2 0.4 0.5
v 0.2 0.4 0.4
v 0.2 0.4 0.3
v 0.2 0.4 0.2
v 0.2 0.4 0
v 0.2 0.4 -0.1
v 0.2 0.4 -0.2
v 0.2 0.5 0.5
v 0.2 0.5 0.4
v 0.2 0.5 0.2
v 0.2 0.5 0.1
v 0.2 0.5 -0.1
v 0.2 0.5 -0.2
v 0.2 0.5 -0.3
v 0.2 0.5 -0.4
v 0.2 0.6 0.5
v 0.2 0.6 0.4
v 0.2 0.6 0.2
v 0.2 0.6 0.1
v 0.2 0.6 -0.3
v 0.2 0.7 0.5
v 0.2 0.7 0.4
v 0.2 0.7 0.2
v 0.2 0.7 0.1
v 0.2 0.8 0.4
v 0.2 0.8 0.2
v 0.2 0.9 0.5
v 0.2 0.9 0.4
v 0.3 0.4 0.4
v 0.3 0.4 0.3
v 0.3 0.4 0.2
v 0.3 0.5 0.3
v 0.3 0.5 0.2
v 0.3 0.6 0.4
v 0.3 0.6 0.2
v -0.2 0.1 0.5
v -0.2 0.2 0.5
v -0.2 0.4 0.5
v -0.2 0.5 0.5
v -0.2 0.6 0.5
v -0.2 0.7 0.5
v -0.2 0.9 0.5
v -0.1 0.1 0.5
v -0.1 0.2 0.5
v -0.1 0.4 0.5
v -0.1 0.5 0.5
v -0.1 0.6 0.5
v -0.1 0.7 0.5
v -0.1 0.9 0.5
v 0.1 0.1 0.5
v 0.1 0.2 0.5
v 0.1 0.4 0.5
v 0.1 0.5 0.5
v 0.1 0.6 0.5
v 0.1 0.7 0.5
v 0.1 0.9 0.5
v 0.2 0.1 0.5
v 0.2 0.2 0.5
v 0.2 0.4 0.5
v 0.2 0.5 0.5
v 0.2 0.6 0.5
v 0.2 0.7 0.5
v 0.2 0.9 0.5
v -0.3 0.4 0.4
v -0.3 0.6 0.4
v -0.2 0.2 0.4
v -0.2 0.3 0.4
v -0.2 0.4 0.4
v -0.2 0.5 0.4
v -0.2 0.6 0.4
v -0.1 0.2 0.4
v -0.1 0.3 0.4
v -0.1 0.7 0.4
v -0.1 0.8 0.4
v 0.1 0.2 0.4
v 0.1 0.3 0.4
v 0.1 0.7 0.4
v 0.1 0.8 0.4
v 0.2 0.2 0.4
v 0.2 0.3 0.4
v 0.2 0.4 0.4
v 0.2 0.5 0.4
v 0.2 0.6 0.4
v 0.3 0.4 0.4
v 0.3 0.6 0.4
v -0.2 0.3 0.3
v -0.2 0.4 0.3
v -0.1 0.3 0.3
v 0.1 0.3 0.3
v 0.2 0.3 0.3
v 0.2 0.4 0.3
v -0.2 0.2 -0.3
v -0.2 0.3 -0.3
v -0.1 0.2 -0.3
v -0.1 0.3 -0.3
v 0.1 0.2 -0.3
v 0.1 0.3 -0.3
v 0.2 0.2 -0.3
v 0.2 0.3 -0.3
v -0.1 0.1 -0.4
v -0.1 0.2 -0.4
v -0.1 0.3 -0.4
v 0 0.1 -0.4
v 0 0.3 -0.4
v -0.2 0.1 -0.5
v -0.2 0.2 -0.5
v -0.1 0.1 -0.5
v -0.1 0.2 -0.5
v 0.1 0.1 -0.5
v 0.1 0.2 -0.5
v 0.2 0.1 -0.5
v 0.2 0.2 -0.5
v -0.2 0.1 0.4
v -0.2 0.2 0.4
v -0.2 0.8 0.4
v -0.2 0.9 0.4
v -0.1 0.1 0.4
v -0.1 0.2 0.4
v -0.1 0.8 0.4
v -0.1 0.9 0.4
v 0.1 0.1 0.4
v 0.1 0.2 0.4
v 0.1 0.8 0.4
v 0.1 0.9 0.4
v 0.2 0.1 0.4
v 0.2 0.2 0.4
v 0.2 0.8 0.4
v 0.2 0.9 0.4
v -0.3 0.4 0.2
v -0.3 0.5 0.2
v -0.3 0.6 0.2
v -0.2 0.2 0.2
v -0.2 0.3 0.2
v -0.2 0.4 0.2
v -0.2 0.5 0.2
v -0.2 0.6 0.2
v -0.2 0.7 0.2
v -0.2 0.8 0.2
v -0.1 0.2 0.2
v -0.1 0.3 0.2
v 0.1 0.2 0.2
v 0.1 0.3 0.2
v 0.2 0.2 0.2
v 0.2 0.3 0.2
v 0.2 0.4 0.2
v 0.2 0.5 0.2
v 0.2 0.6 0.2
v 0.2 0.7 0.2
v 0.2 0.8 0.2
v 0.3 0.4 0.2
v 0.3 0.5 0.2
v 0.3 0.6 0.2
v -0.2 0.6 0.1
v -0.2 0.7 0.1
v 0.2 0.6 0.1
v 0.2 0.7 0.1
v -0.2 0.5 -0.3
v -0.2 0.6 -0.3
v 0.2 0.5 -0.3
v 0.2 0.6 -0.3
v -0.2 0.3 -0.4
v -0.2 0.5 -0.4
v -0.1 0.3 -0.4
v -0.1 0.4 -0.4
v 0 0.3 -0.4
v 0 0.4 -0.4
v 0 0.5 -0.4
v 0.1 0.3 -0.4
v 0.1 0.4 -0.4
v 0.1 0.5 -0.4
v 0.2 0.3 -0.4
v 0.2 0.5 -0.4
v -0.2 0.2 -0.5
v -0.2 0.3 -0.5
v -0.1 0.1 -0.5
v -0.1 0.2 -0.5
v -0.1 0.3 -0.5
v -0.1 0.4 -0.5
v 0 0.1 -0.5
v 0 0.4 -0.5
v 0 0.5 -0.5
v 0.1 0.2 -0.5
v 0.1 0.3 -0.5
v 0.1 0.4 -0.5
v 0.1 0.5 -0.5
v 0.2 0.2 -0.5
v 0.2 0.3 -0.5
v -0.2 0.1 -0.6
v -0.2 0.2 -0.6
v -0.1 0.1 -0.6
v -0.1 0.2 -0.6
v 0.1 0.1 -0.6
v 0.1 0.2 -0.6
v 0.2 0.1 -0.6
v 0.2 0.2 -0.6
v -0.2 0.1 0.5
v -0.1 0.1 0.5
v 0.1 0.1 0.5
v 0.2 0.1 0.5
v -0.2 0.1 0.4
v -0.1 0.1 0.4
v 0.1 0.1 0.4
v 0.2 0.1 0.4
v -0.1 0.1 -0.4
v 0 0.1 -0.4
v -0.2 0.1 -0.5
v -0.1 0.1 -0.5
v 0 0.1 -0.5
v 0.1 0.1 -0.5
v 0.2 0.1 -0.5
v -0.2 0.1 -0.6
v -0.1 0.1 -0.6
v 0.1 0.1 -0.6
v 0.2 0.1 -0.6
v -0.2 0.2 0.4
v -0.1 0.2 0.4
v 0.1 0.2 0.4
v 0.2 0.2 0.4
v -0.2 0.2 0.2
v -0.1 0.2 0.2
v 0.1 0.2 0.2
v 0.2 0.2 0.2
v -0.2 0.2 -0.3
v -0.1 0.2 -0.3
v 0.1 0.2 -0.3
v 0.2 0.2 -0.3
v -0.1 0.2 -0.4
v -0.2 0.2 -0.5
v -0.1 0.2 -0.5
v 0.1 0.2 -0.5
v 0.2 0.2 -0.5
v -0.1 0.3 0.3
v 0.1 0.3 0.3
v -0.2 0.3 0.2
v -0.1 0.3 0.2
v 0.1 0.3 0.2
v 0.2 0.3 0.2
v -0.2 0.3 0.1
v -0.1 0.3 0.1
v -0.2 0.3 0
v -0.1 0.3 0
v 0.1 0.3 0
v 0.2 0.3 0
v -0.2 0.3 -0.1
v -0.1 0.3 -0.1
v 0.1 0.3 -0.1
v 0.2 0.3 -0.1
v -0.2 0.3 -0.2
v -0.1 0.3 -0.2
v -0.2 0.3 -0.3
v -0.1 0.3 -0.3
v 0.1 0.3 -0.3
v 0.2 0.3 -0.3
v -0.1 0.3 -0.4
v 0 0.3 -0.4
v 0.1 0.3 -0.4
v -0.2 0.4 0.5
v -0.1 0.4 0.5
v 0.1 0.4 0.5
v 0.2 0.4 0.5
v -0.3 0.4 0.4
v -0.2 0.4 0.4
v -0.1 0.4 0.4
v 0.1 0.4 0.4
v 0.2 0.4 0.4
v 0.3 0.4 0.4
v -0.3 0.4 0.3
v -0.2 0.4 0.3
v 0.2 0.4 0.3
v 0.3 0.4 0.3
v -0.3 0.4 0.2
v -0.2 0.4 0.2
v 0.2 0.4 0.2
v 0.3 0.4 0.2
v 0 0.4 -0.4
v 0.1 0.4 -0.4
v 0 0.4 -0.5
v 0.1 0.4 -0.5
v -0.2 0.2 0.5
v -0.1 0.2 0.5
v 0.1 0.2 0.5
v 0.2 0.2 0.5
v -0.2 0.2 0.4
v -0.1 0.2 0.4
v 0.1 0.2 0.4
v 0.2 0.2 0.4
v -0.2 0.2 -0.5
v -0.1 0.2 -0.5
v 0.1 0.2 -0.5
v 0.2 0.2 -0.5
v -0.2 0.2 -0.6
v -0.1 0.2 -0.6
v 0.1 0.2 -0.6
v 0.2 0.2 -0.6
v -0.2 0.3 0.4
v -0.1 0.3 0.4
v 0.1 0.3 0.4
v 0.2 0.3 0.4
v -0.2 0.3 0.3
v -0.1 0.3 0.3
v 0.1 0.3 0.3
v 0.2 0.3 0.3
v -0.2 0.3 -0.4
v -0.1 0.3 -0.4
v 0.1 0.3 -0.4
v 0.2 0.3 -0.4
v -0.2 0.3 -0.5
v -0.1 0.3 -0.5
v 0.1 0.3 -0.5
v 0.2 0.3 -0.5
v -0.1 0.4 -0.4
v 0 0.4 -0.4
v -0.1 0.4 -0.5
v 0 0.4 -0.5
v -0.2 0.5 -0.3
v 0.2 0.5 -0.3
v -0.2 0.5 -0.4
v 0 0.5 -0.4
v 0.1 0.5 -0.4
v 0.2 0.5 -0.4
v 0 0.5 -0.5
v 0.1 0.5 -0.5
v -0.3 0.6 0.4
v -0.2 0.6 0.4
v 0.2 0.6 0.4
v 0.3 0.6 0.4
v -0.3 0.6 0.2
v -0.2 0.6 0.2
v 0.2 0.6 0.2
v 0.3 0.6 0.2
v -0.2 0.6 0.1
v 0.2 0.6 0.1
v -0.2 0.6 -0.3
v 0.2 0.6 -0.3
v -0.1 0.7 0.5
v 0.1 0.7 0.5
v -0.1 0.7 0.4
v 0.1 0.7 0.4
v -0.2 0.7 0.2
v 0.2 0.7 0.2
v -0.2 0.7 0.1
v 0.2 0.7 0.1
v -0.2 0.8 0.4
v -0.1 0.8 0.4
v 0.1 0.8 0.4
v 0.2 0.8 0.4
v -0.2 0.8 0.2
v 0.2 0.8 0.2
v -0.2 0.9 0.5
v -0.1 0.9 0.5
v 0.1 0.9 0.5
v 0.2 0.9 0.5
v -0.2 0.9 0.4
v -0.1 0.9 0.4
v 0.1 0.9 0.4
v 0.2 0.9 0.4

# faces
f 4/3/1 2/3/1 1/3/1
f 4/2/1 3/2/1 2/2/1
f 5/2/1 3/2/1 4/2/1
f 6/3/1 4/3/1 1/3/1
f 6/3/1 5/3/1 4/3/1
f 7/3/1 5/3/1 6/3/1
f 12/3/1 9/3/1 8/3/1
f 13/3/1 9/3/1 12/3/1
f 16/3/1 11/3/1 10/3/1
f 17/3/1 11/3/1 16/3/1
f 18/3/1 14/3/1 13/3/1
f 19/3/1 14/3/1 18/3/1
f 20/3/1 14/3/1 19/3/1
f 25/3/1 16/3/1 15/3/1
f 26/3/1 16/3/1 25/3/1
f 27/3/1 16/3/1 26/3/1
f 30/3/1 20/3/1 19/3/1
f 31/2/1 21/2/1 20/2/1
f 31/3/1 20/3/1 30/3/1
f 32/3/1 22/3/1 21/3/1
f 32/2/1 21/2/1 31/2/1
f 33/2/1 23/2/1 22/2/1
f 33/3/1 22/3/1 32/3/1
f 34/1/1 24/1/1 23/1/1
f 34/2/1 23/2/1 33/2/1
f 35/3/1 25/3/1 24/3/1
f 35/1/1 24/1/1 34/1/1
f 35/3/1 26/3/1 25/3/1
f 36/3/1 29/3/1 28/3/1
f 37/3/1 29/3/1 36/3/1
f 38/3/1 32/3/1 31/3/1
f 39/1/1 33/1/1 32/1/1
f 39/3/1 32/3/1 38/3/1
f 40/2/1 34/2/1 33/2/1
f 40/1/1 33/1/1 39/1/1
f 41/3/1 35/3/1 34/3/1
f 41/2/1 34/2/1 40/2/1
f 42/3/1 26/3/1 35/3/1
f 42/3/1 35/3/1 41/3/1
f 43/3/1 26/3/1 42/3/1
f 44/7/1 37/7/1 36/7/1
f 45/7/1 37/7/1 44/7/1
f 46/3/1 39/3/1 38/3/1
f 47/4/1 41/4/1 40/4/1
f 47/4/1 40/4/1 39/4/1
f 47/3/1 39/3/1 46/3/1
f 47/4/1 42/4/1 41/4/1
f 48/4/1 42/4/1 47/4/1
f 49/3/1 46/3/1 45/3/1
f 49/3/1 45/3/1 44/3/1
f 50/3/1 46/3/1 49/3/1
f 51/4/1 47/4/1 46/4/1
f 51/3/1 46/3/1 50/3/1
f 52/4/1 47/4/1 51/4/1
f 53/4/1 50/4/1 49/4/1
f 53/3/1 51/3/1 50/3/1
f 54/3/1 51/3/1 53/3/1
f 55/4/1 53/4/1 49/4/1
f 56/4/1 53/4/1 55/4/1
f 59/5/1 58/5/1 57/5/1
f 60/5/1 58/5/1 59/5/1
f 63/5/1 62/5/1 61/5/1
f 64/5/1 62/5/1 63/5/1
f 67/5/1 66/5/1 65/5/1
f 68/5/1 66/5/1 67/5/1
f 73/3/1 70/3/1 69/3/1
f 74/3/1 70/3/1 73/3/1
f 77/3/1 72/3/1 71/3/1
f 78/3/1 72/3/1 77/3/1
f 79/3/1 75/3/1 74/3/1
f 80/3/1 75/3/1 79/3/1
f 81/3/1 75/3/1 80/3/1
f 82/3/1 77/3/1 76/3/1
f 83/3/1 77/3/1 82/3/1
f 84/3/1 77/3/1 83/3/1
f 87/4/1 86/4/1 85/4/1
f 88/4/1 87/4/1 85/4/1
f 89/4/1 87/4/1 88/4/1
f 90/3/2 91/3/2 94/3/2
f 94/3/2 91/3/2 95/3/2
f 92/3/2 93/3/2 99/3/2
f 99/3/2 93/3/2 100/3/2
f 95/3/2 96/3/2 101/3/2
f 101/3/2 96/3/2 102/3/2
f 102/3/2 96/3/2 103/3/2
f 97/3/2 98/3/2 104/3/2
f 104/3/2 98/3/2 105/3/2
f 106/4/2 107/4/2 108/4/2
f 106/4/2 108/4/2 109/4/2
f 109/4/2 108/4/2 110/4/2
f 111/5/2 112/5/2 113/5/2
f 113/5/2 112/5/2 114/5/2
f 114/5/2 112/5/2 115/5/2
f 116/5/2 117/5/2 118/5/2
f 118/5/2 117/5/2 119/5/2
f 120/3/2 121/3/2 124/3/2
f 124/3/2 121/3/2 125/3/2
f 122/3/2 123/3/2 128/3/2
f 128/3/2 123/3/2 129/3/2
f 125/3/2 126/3/2 130/3/2
f 130/3/2 126/3/2 131/3/2
f 131/3/2 126/3/2 132/3/2
f 127/3/2 128/3/2 135/3/2
f 135/3/2 128/3/2 136/3/2
f 136/3/2 128/3/2 137/3/2
f 131/3/2 132/3/2 140/3/2
f 132/3/2 133/3/2 140/3/2
f 140/3/2 133/3/2 141/3/2
f 133/1/2 134/1/2 142/1/2
f 141/3/2 133/3/2 142/3/2
f 135/3/2 136/3/2 143/3/2
f 142/1/2 134/1/2 143/1/2
f 134/3/2 135/3/2 143/3/2
f 143/3/2 136/3/2 144/3/2
f 138/3/2 139/3/2 145/3/2
f 145/3/2 139/3/2 146/3/2
f 141/3/2 142/3/2 147/3/2
f 142/3/2 143/3/2 147/3/2
f 147/3/2 143/3/2 148/3/2
f 143/2/2 144/2/2 149/2/2
f 148/3/2 143/3/2 149/3/2
f 144/3/2 136/3/2 150/3/2
f 149/2/2 144/2/2 150/2/2
f 150/3/2 136/3/2 151/3/2
f 151/3/2 136/3/2 152/3/2
f 145/7/2 146/7/2 153/7/2
f 153/7/2 146/7/2 154/7/2
f 147/3/2 148/3/2 155/3/2
f 148/4/2 149/4/2 156/4/2
f 149/4/2 150/4/2 156/4/2
f 155/3/2 148/3/2 156/3/2
f 150/4/2 151/4/2 156/4/2
f 156/4/2 151/4/2 157/4/2
f 154/3/2 155/3/2 158/3/2
f 153/3/2 154/3/2 158/3/2
f 158/3/2 155/3/2 159/3/2
f 155/4/2 156/4/2 160/4/2
f 159/3/2 155/3/2 160/3/2
f 160/4/2 156/4/2 161/4/2
f 158/4/2 159/4/2 162/4/2
f 159/3/2 160/3/2 162/3/2
f 162/3/2 160/3/2 163/3/2
f 158/4/2 162/4/2 164/4/2
f 164/4/2 162/4/2 165/4/2
f 166/3/2 167/3/2 169/3/2
f 167/2/2 168/2/2 169/2/2
f 169/2/2 168/2/2 170/2/2
f 166/3/2 169/3/2 171/3/2
f 169/3/2 170/3/2 171/3/2
f 171/3/2 170/3/2 172/3/2
f 180/3/3 174/3/3 173/3/3
f 181/3/3 174/3/3 180/3/3
f 182/3/3 176/3/3 175/3/3
f 183/7/3 177/7/3 176/7/3
f 183/3/3 176/3/3 182/3/3
f 184/3/3 178/3/3 177/3/3
f 184/7/3 177/7/3 183/7/3
f 185/4/3 179/4/3 178/4/3
f 185/3/3 178/3/3 184/3/3
f 186/4/3 179/4/3 185/4/3
f 189/6/3 183/6/3 182/6/3
f 190/3/3 184/3/3 183/3/3
f 190/6/3 183/6/3 189/6/3
f 190/3/3 185/3/3 184/3/3
f 191/3/3 185/3/3 190/3/3
f 192/3/3 185/3/3 191/3/3
f 194/3/3 188/3/3 187/3/3
f 195/3/3 188/3/3 194/3/3
f 196/3/3 190/3/3 189/3/3
f 197/7/3 191/7/3 190/7/3
f 197/3/3 190/3/3 196/3/3
f 198/3/3 192/3/3 191/3/3
f 198/7/3 191/7/3 197/7/3
f 199/4/3 193/4/3 192/4/3
f 199/3/3 192/3/3 198/3/3
f 200/4/3 193/4/3 199/4/3
f 205/3/3 202/3/3 201/3/3
f 206/3/3 202/3/3 205/3/3
f 207/3/3 202/3/3 206/3/3
f 208/3/3 204/3/3 203/3/3
f 209/3/3 204/3/3 208/3/3
f 214/3/3 211/3/3 210/3/3
f 215/3/3 211/3/3 214/3/3
f 216/3/3 213/3/3 212/3/3
f 217/3/3 213/3/3 216/3/3
f 221/3/3 220/3/3 219/3/3
f 221/3/3 219/3/3 218/3/3
f 222/3/3 220/3/3 221/3/3
f 225/3/3 224/3/3 223/3/3
f 226/3/3 224/3/3 225/3/3
f 227/3/3 224/3/3 226/3/3
f 228/3/3 224/3/3 227/3/3
f 231/3/3 230/3/3 229/3/3
f 232/3/3 230/3/3 231/3/3
f 235/3/3 234/3/3 233/3/3
f 236/3/3 234/3/3 235/3/3
f 240/5/3 238/5/3 237/5/3
f 240/5/3 239/5/3 238/5/3
f 241/5/3 239/5/3 240/5/3
f 244/3/3 243/3/3 242/3/3
f 245/3/3 243/3/3 244/3/3
f 248/3/3 247/3/3 246/3/3
f 249/3/3 247/3/3 248/3/3
f 250/3/4 251/3/4 254/3/4
f 254/3/4 251/3/4 255/3/4
f 252/4/4 253/4/4 256/4/4
f 256/4/4 253/4/4 257/4/4
f 258/3/4 259/3/4 262/3/4
f 262/3/4 259/3/4 263/3/4
f 260/4/4 261/4/4 264/4/4
f 264/4/4 261/4/4 265/4/4
f 266/2/4 267/2/4 271/2/4
f 267/3/4 268/3/4 272/3/4
f 271/2/4 267/2/4 272/2/4
f 272/3/4 268/3/4 273/3/4
f 269/3/4 270/3/4 276/3/4
f 276/3/4 270/3/4 277/3/4
f 278/3/4 279/3/4 280/3/4
f 280/3/4 279/3/4 281/3/4
f 274/3/4 275/3/4 285/3/4
f 285/3/4 275/3/4 286/3/4
f 282/2/4 283/2/4 287/2/4
f 283/3/4 284/3/4 288/3/4
f 287/2/4 283/2/4 288/2/4
f 288/3/4 284/3/4 289/3/4
f 290/4/4 291/4/4 292/4/4
f 292/4/4 291/4/4 293/4/4
f 294/4/4 295/4/4 296/4/4
f 296/4/4 295/4/4 297/4/4
f 298/3/4 299/3/4 300/3/4
f 300/3/4 299/3/4 301/3/4
f 301/3/4 299/3/4 303/3/4
f 303/3/4 299/3/4 304/3/4
f 302/3/4 303/3/4 305/3/4
f 305/3/4 303/3/4 306/3/4
f 305/3/4 306/3/4 308/3/4
f 306/3/4 307/3/4 308/3/4
f 308/3/4 307/3/4 309/3/4
f 310/3/4 311/3/4 313/3/4
f 313/3/4 311/3/4 314/3/4
f 312/5/4 313/5/4 316/5/4
f 314/5/4 315/5/4 316/5/4
f 313/5/4 314/5/4 316/5/4
f 316/5/4 315/5/4 317/5/4
f 317/5/4 318/5/4 321/5/4
f 321/5/4 318/5/4 322/5/4
f 319/3/4 320/3/4 323/3/4
f 323/3/4 320/3/4 324/3/4
f 325/3/4 326/3/4 327/3/4
f 327/3/4 326/3/4 328/3/4
f 329/3/4 330/3/4 331/3/4
f 331/3/4 330/3/4 332/3/4
f 337/3/5 334/3/5 333/3/5
f 338/3/5 334/3/5 337/3/5
f 339/3/5 336/3/5 335/3/5
f 340/3/5 336/3/5 339/3/5
f 344/5/5 342/5/5 341/5/5
f 345/5/5 342/5/5 344/5/5
f 348/3/5 344/3/5 343/3/5
f 349/3/5 344/3/5 348/3/5
f 350/3/5 347/3/5 346/3/5
f 351/3/5 347/3/5 350/3/5
f 356/3/5 353/3/5 352/3/5
f 357/3/5 353/3/5 356/3/5
f 358/3/5 355/3/5 354/3/5
f 359/3/5 355/3/5 358/3/5
f 364/3/5 361/3/5 360/3/5
f 365/3/5 364/3/5 360/3/5
f 366/3/5 364/3/5 365/3/5
f 367/3/5 363/3/5 362/3/5
f 368/3/5 363/3/5 367/3/5
f 372/3/5 370/3/5 369/3/5
f 373/3/5 370/3/5 372/3/5
f 375/2/5 372/2/5 371/2/5
f 376/3/5 374/3/5 373/3/5
f 376/2/5 372/2/5 375/2/5
f 376/3/5 373/3/5 372/3/5
f 377/3/5 376/3/5 375/3/5
f 378/3/5 374/3/5 376/3/5
f 378/3/5 376/3/5 377/3/5
f 379/3/5 374/3/5 378/3/5
f 380/3/5 374/3/5 379/3/5
f 381/2/5 378/2/5 377/2/5
f 382/3/5 379/3/5 378/3/5
f 382/2/5 378/2/5 381/2/5
f 383/1/5 380/1/5 379/1/5
f 383/3/5 379/3/5 382/3/5
f 384/1/5 380/1/5 383/1/5
f 385/1/5 382/1/5 381/1/5
f 386/3/5 383/3/5 382/3/5
f 386/1/5 382/1/5 385/1/5
f 386/3/5 384/3/5 383/3/5
f 387/3/5 386/3/5 385/3/5
f 388/3/5 384/3/5 386/3/5
f 388/3/5 386/3/5 387/3/5
f 389/3/5 384/3/5 388/3/5
f 390/3/5 384/3/5 389/3/5
f 391/3/5 389/3/5 388/3/5
f 392/3/5 389/3/5 391/3/5
f 393/3/5 389/3/5 392/3/5
f 399/3/5 395/3/5 394/3/5
f 400/6/5 396/6/5 395/6/5
f 400/3/5 395/3/5 399/3/5
f 401/3/5 397/3/5 396/3/5
f 401/6/5 396/6/5 400/6/5
f 402/3/5 397/3/5 401/3/5
f 404/3/5 400/3/5 399/3/5
f 404/3/5 403/3/5 402/3/5
f 404/3/5 402/3/5 401/3/5
f 404/3/5 401/3/5 400/3/5
f 404/3/5 399/3/5 398/3/5
f 405/3/5 403/3/5 404/3/5
f 406/3/5 403/3/5 405/3/5
f 407/3/5 403/3/5 406/3/5
f 408/2/5 405/2/5 404/2/5
f 409/2/5 405/2/5 408/2/5
f 410/2/5 407/2/5 406/2/5
f 411/2/5 407/2/5 410/2/5
f 414/5/5 413/5/5 412/5/5
f 415/5/5 413/5/5 414/5/5
f 416/3/6 417/3/6 420/3/6
f 420/3/6 417/3/6 421/3/6
f 418/3/6 419/3/6 422/3/6
f 422/3/6 419/3/6 423/3/6
f 424/3/6 425/3/6 428/3/6
f 428/3/6 425/3/6 429/3/6
f 426/3/6 427/3/6 430/3/6
f 430/3/6 427/3/6 431/3/6
f 432/3/6 433/3/6 436/3/6
f 436/3/6 433/3/6 437/3/6
f 434/3/6 435/3/6 438/3/6
f 438/3/6 435/3/6 439/3/6
f 440/3/6 441/3/6 444/3/6
f 444/3/6 441/3/6 445/3/6
f 442/3/6 443/3/6 446/3/6
f 446/3/6 443/3/6 447/3/6
f 448/5/6 449/5/6 450/5/6
f 450/5/6 449/5/6 451/5/6
f 452/3/6 453/3/6 454/3/6
f 454/3/6 453/3/6 455/3/6
f 455/3/6 453/3/6 456/3/6
f 456/3/6 453/3/6 457/3/6
f 455/5/6 456/5/6 458/5/6
f 458/5/6 456/5/6 459/5/6
f 460/3/6 461/3/6 464/3/6
f 464/3/6 461/3/6 465/3/6
f 462/3/6 463/3/6 466/3/6
f 466/3/6 463/3/6 467/3/6
f 468/4/6 469/4/6 470/4/6
f 470/4/6 469/4/6 471/4/6
f 472/3/6 473/3/6 474/3/6
f 474/3/6 473/3/6 475/3/6
f 476/4/6 477/4/6 478/4/6
f 478/4/6 477/4/6 479/4/6
f 480/3/6 481/3/6 484/3/6
f 482/3/6 483/3/6 484/3/6
f 481/3/6 482/3/6 484/3/6
f 484/3/6 483/3/6 485/3/6
f 486/4/6 487/4/6 490/4/6
f 490/4/6 487/4/6 491/4/6
f 488/4/6 489/4/6 492/4/6
f 492/4/6 489/4/6 493/4/6
