# MagicaVoxel @ Ephtracy

# group
o 

# material
mtllib Run2.mtl
usemtl palette

# normals
vn -1 0 0
vn 1 0 0
vn 0 0 1
vn 0 0 -1
vn 0 -1 0
vn 0 1 0

# texcoords
vt 0.912109 0.5
vt 0.958984 0.5
vt 0.962891 0.5
vt 0.966797 0.5

# verts
v -0.3 0.6 0.2
v -0.3 0.6 -0.2
v -0.3 0.7 0.2
v -0.3 0.7 -0.2
v -0.2 0 -0.2
v -0.2 0 -0.3
v -0.2 0.1 -0.2
v -0.2 0.1 -0.3
v -0.2 0.2 -0.2
v -0.2 0.2 -0.3
v -0.2 0.3 -0.2
v -0.2 0.3 -0.3
v -0.2 0.4 0
v -0.2 0.4 -0.2
v -0.2 0.5 0
v -0.2 0.5 -0.1
v -0.2 0.5 -0.2
v -0.2 0.5 -0.3
v -0.2 0.6 0
v -0.2 0.6 -0.1
v -0.2 0.6 -0.2
v -0.2 0.7 -0.1
v -0.2 0.7 -0.2
v -0.2 0.7 -0.3
v -0.2 0.8 -0.1
v -0.2 0.8 -0.2
v -0.2 0.9 0.2
v -0.2 0.9 -0.1
v -0.2 0.9 -0.2
v -0.2 1 0.2
v -0.2 1 0.1
v -0.2 1 0
v -0.2 1 -0.1
v -0.2 1 -0.2
v -0.2 1.1 0.2
v -0.2 1.1 0.1
v -0.2 1.1 0
v -0.2 1.1 -0.1
v -0.2 1.1 -0.2
v -0.2 1.2 0.2
v -0.2 1.2 -0.1
v -0.2 1.2 -0.2
v -0.1 0.3 0
v -0.1 0.3 -0.2
v -0.1 0.4 0
v -0.1 0.4 -0.2
v -0.1 0.7 0
v -0.1 0.7 -0.1
v -0.1 0.7 -0.2
v -0.1 0.7 -0.3
v -0.1 0.8 0.2
v -0.1 0.8 0.1
v -0.1 0.8 0
v -0.1 0.8 -0.1
v -0.1 0.8 -0.2
v -0.1 0.8 -0.3
v -0.1 0.9 0.2
v -0.1 0.9 0.1
v -0.1 0.9 -0.1
v -0.1 0.9 -0.2
v -0.1 1.2 0.1
v -0.1 1.2 0
v -0.1 1.2 -0.1
v -0.1 1.3 0.1
v -0.1 1.3 0
v -0.1 1.3 -0.1
v 0.1 0 0
v 0.1 0 -0.1
v 0.1 0.2 0
v 0.1 0.2 -0.1
v 0.1 0.3 0
v 0.1 0.3 -0.1
v 0.2 0.6 0.2
v 0.2 0.6 0
v 0.2 0.7 0.2
v 0.2 0.7 0
v -0.2 0.6 0.2
v -0.2 0.6 0
v -0.2 0.7 0.2
v -0.2 0.7 0
v -0.1 0 -0.2
v -0.1 0 -0.3
v -0.1 0.1 -0.2
v -0.1 0.1 -0.3
v -0.1 0.2 -0.2
v -0.1 0.2 -0.3
v -0.1 0.3 -0.2
v -0.1 0.3 -0.3
v 0.1 0.3 -0.1
v 0.1 0.3 -0.3
v 0.1 0.4 -0.1
v 0.1 0.4 -0.3
v 0.1 0.7 0
v 0.1 0.7 -0.1
v 0.1 0.7 -0.2
v 0.1 0.7 -0.3
v 0.1 0.8 0.2
v 0.1 0.8 0.1
v 0.1 0.8 0
v 0.1 0.8 -0.1
v 0.1 0.8 -0.2
v 0.1 0.8 -0.3
v 0.1 0.9 0.2
v 0.1 0.9 0.1
v 0.1 0.9 -0.1
v 0.1 0.9 -0.2
v 0.1 1.2 0.1
v 0.1 1.2 -0.1
v 0.1 1.3 0.1
v 0.1 1.3 -0.1
v 0.2 0 0
v 0.2 0 -0.1
v 0.2 0.2 0
v 0.2 0.2 -0.1
v 0.2 0.3 0
v 0.2 0.3 -0.1
v 0.2 0.4 0
v 0.2 0.4 -0.1
v 0.2 0.4 -0.3
v 0.2 0.5 0
v 0.2 0.5 -0.1
v 0.2 0.6 0
v 0.2 0.6 -0.1
v 0.2 0.6 -0.2
v 0.2 0.7 -0.1
v 0.2 0.7 -0.2
v 0.2 0.7 -0.3
v 0.2 0.8 -0.1
v 0.2 0.8 -0.2
v 0.2 0.9 0.2
v 0.2 0.9 -0.2
v 0.2 1 0.2
v 0.2 1 0.1
v 0.2 1 0
v 0.2 1 -0.1
v 0.2 1.1 0.2
v 0.2 1.1 0.1
v 0.2 1.1 0
v 0.2 1.1 -0.1
v 0.2 1.2 0.2
v 0.2 1.2 -0.2
v 0.3 0.6 0.2
v 0.3 0.6 -0.1
v 0.3 0.6 -0.2
v 0.3 0.7 0.2
v 0.3 0.7 -0.1
v 0.3 0.7 -0.2
v -0.3 0.6 0.2
v -0.3 0.7 0.2
v -0.2 0.6 0.2
v -0.2 0.7 0.2
v -0.2 0.9 0.2
v -0.2 1 0.2
v -0.2 1.1 0.2
v -0.2 1.2 0.2
v -0.1 0.8 0.2
v -0.1 0.9 0.2
v -0.1 1 0.2
v -0.1 1.1 0.2
v -2.98023e-08 0.9 0.2
v -2.98023e-08 1 0.2
v 0.1 0.8 0.2
v 0.1 0.9 0.2
v 0.1 1 0.2
v 0.1 1.1 0.2
v 0.2 0.6 0.2
v 0.2 0.7 0.2
v 0.2 0.9 0.2
v 0.2 1 0.2
v 0.2 1.1 0.2
v 0.2 1.2 0.2
v 0.3 0.6 0.2
v 0.3 0.7 0.2
v -0.1 1.2 0.1
v -0.1 1.3 0.1
v -2.98023e-08 1.2 0.1
v -2.98023e-08 1.3 0.1
v 0.1 1.2 0.1
v 0.1 1.3 0.1
v -0.2 0.4 0
v -0.2 0.5 0
v -0.2 0.6 0
v -0.2 0.7 0
v -0.1 0.3 0
v -0.1 0.4 0
v -0.1 0.5 0
v -0.1 0.6 0
v -0.1 0.7 0
v -0.1 0.8 0
v -2.98023e-08 0.3 0
v -2.98023e-08 0.4 0
v -2.98023e-08 0.5 0
v -2.98023e-08 0.6 0
v -2.98023e-08 0.7 0
v 0.1 0 0
v 0.1 0.2 0
v 0.1 0.3 0
v 0.1 0.4 0
v 0.1 0.5 0
v 0.1 0.6 0
v 0.1 0.7 0
v 0.1 0.8 0
v 0.2 0 0
v 0.2 0.2 0
v 0.2 0.3 0
v 0.2 0.4 0
v 0.2 0.5 0
v 0.2 0.6 0
v 0.2 0.7 0
v -0.2 0.7 -0.1
v -0.2 0.8 -0.1
v -0.1 0.7 -0.1
v -0.1 0.8 -0.1
v -0.1 0.9 -0.1
v 0.1 0.7 -0.1
v 0.1 0.8 -0.1
v 0.1 0.9 -0.1
v 0.2 0.7 -0.1
v 0.2 0.8 -0.1
v -0.2 0 -0.2
v -0.2 0.1 -0.2
v -0.2 0.2 -0.2
v -0.2 0.3 -0.2
v -0.2 0.4 -0.2
v -0.1 0 -0.2
v -0.1 0.1 -0.2
v -0.1 0.2 -0.2
v -0.1 0.3 -0.2
v -0.1 0.4 -0.2
v -0.1 0.8 0.1
v -0.1 0.9 0.1
v 0.1 0.8 0.1
v 0.1 0.9 0.1
v -0.1 1.2 -0.1
v -0.1 1.3 -0.1
v 0.1 0 -0.1
v 0.1 0.2 -0.1
v 0.1 0.3 -0.1
v 0.1 0.4 -0.1
v 0.1 1.2 -0.1
v 0.1 1.3 -0.1
v 0.2 0 -0.1
v 0.2 0.2 -0.1
v 0.2 0.3 -0.1
v 0.2 0.4 -0.1
v -0.3 0.6 -0.2
v -0.3 0.7 -0.2
v -0.2 0.6 -0.2
v -0.2 0.7 -0.2
v -0.2 0.8 -0.2
v -0.2 0.9 -0.2
v -0.2 1 -0.2
v -0.2 1.1 -0.2
v -0.2 1.2 -0.2
v -0.1 0.7 -0.2
v -0.1 0.8 -0.2
v -0.1 0.9 -0.2
v -0.1 1 -0.2
v -0.1 1.1 -0.2
v -0.1 1.2 -0.2
v -2.98023e-08 0.9 -0.2
v -2.98023e-08 1 -0.2
v 0.1 0.7 -0.2
v 0.1 0.8 -0.2
v 0.1 0.9 -0.2
v 0.1 1 -0.2
v 0.2 0.6 -0.2
v 0.2 0.7 -0.2
v 0.2 0.8 -0.2
v 0.2 0.9 -0.2
v 0.2 1.2 -0.2
v 0.3 0.6 -0.2
v 0.3 0.7 -0.2
v -0.2 0 -0.3
v -0.2 0.1 -0.3
v -0.2 0.2 -0.3
v -0.2 0.3 -0.3
v -0.2 0.5 -0.3
v -0.2 0.7 -0.3
v -0.1 0 -0.3
v -0.1 0.1 -0.3
v -0.1 0.2 -0.3
v -0.1 0.3 -0.3
v -0.1 0.5 -0.3
v -0.1 0.7 -0.3
v -0.1 0.8 -0.3
v -2.98023e-08 0.6 -0.3
v -2.98023e-08 0.7 -0.3
v 0.1 0.3 -0.3
v 0.1 0.4 -0.3
v 0.1 0.6 -0.3
v 0.1 0.7 -0.3
v 0.1 0.8 -0.3
v 0.2 0.4 -0.3
v 0.2 0.7 -0.3
v 0.1 0 0
v 0.2 0 0
v 0.1 0 -0.1
v 0.2 0 -0.1
v -0.2 0 -0.2
v -0.1 0 -0.2
v -0.2 0 -0.3
v -0.1 0 -0.3
v -0.1 0.3 0
v -2.98023e-08 0.3 0
v 0.1 0.3 0
v -2.98023e-08 0.3 -0.1
v 0.1 0.3 -0.1
v -0.1 0.3 -0.2
v -0.1 0.3 -0.3
v 0.1 0.3 -0.3
v -0.2 0.4 0
v -0.1 0.4 0
v 0.1 0.4 -0.1
v 0.2 0.4 -0.1
v -0.2 0.4 -0.2
v -0.1 0.4 -0.2
v 0.1 0.4 -0.3
v 0.2 0.4 -0.3
v -0.3 0.6 0.2
v -0.2 0.6 0.2
v 0.2 0.6 0.2
v 0.3 0.6 0.2
v -0.2 0.6 0
v 0.2 0.6 0
v -0.2 0.6 -0.1
v 0.2 0.6 -0.1
v 0.3 0.6 -0.1
v -0.3 0.6 -0.2
v -0.2 0.6 -0.2
v 0.2 0.6 -0.2
v 0.3 0.6 -0.2
v -0.1 0.8 0.2
v 0.1 0.8 0.2
v -0.1 0.8 0.1
v 0.1 0.8 0.1
v -0.2 0.9 0.2
v -0.1 0.9 0.2
v 0.1 0.9 0.2
v 0.2 0.9 0.2
v -0.1 0.9 0.1
v 0.1 0.9 0.1
v -0.2 0.9 -0.1
v -0.1 0.9 -0.1
v 0.1 0.9 -0.1
v -0.2 0.9 -0.2
v -0.1 0.9 -0.2
v 0.1 0.9 -0.2
v 0.2 0.9 -0.2
v -0.3 0.7 0.2
v -0.2 0.7 0.2
v 0.2 0.7 0.2
v 0.3 0.7 0.2
v -0.2 0.7 0
v -0.1 0.7 0
v 0.1 0.7 0
v 0.2 0.7 0
v -0.2 0.7 -0.1
v -0.1 0.7 -0.1
v 0.1 0.7 -0.1
v 0.2 0.7 -0.1
v 0.3 0.7 -0.1
v -0.3 0.7 -0.2
v -0.2 0.7 -0.2
v -0.1 0.7 -0.2
v 0.1 0.7 -0.2
v 0.2 0.7 -0.2
v 0.3 0.7 -0.2
v -0.2 0.7 -0.3
v -0.1 0.7 -0.3
v 0.1 0.7 -0.3
v 0.2 0.7 -0.3
v -0.1 0.8 0
v 0.1 0.8 0
v -0.2 0.8 -0.1
v -0.1 0.8 -0.1
v 0.1 0.8 -0.1
v 0.2 0.8 -0.1
v -0.2 0.8 -0.2
v -0.1 0.8 -0.2
v 0.1 0.8 -0.2
v 0.2 0.8 -0.2
v -0.1 0.8 -0.3
v 0.1 0.8 -0.3
v -0.2 1.2 0.2
v 0.2 1.2 0.2
v -0.1 1.2 0.1
v -2.98023e-08 1.2 0.1
v 0.1 1.2 0.1
v -0.1 1.2 0
v -0.2 1.2 -0.1
v -0.1 1.2 -0.1
v 0.1 1.2 -0.1
v -0.2 1.2 -0.2
v -0.1 1.2 -0.2
v 0.2 1.2 -0.2
v -0.1 1.3 0.1
v -2.98023e-08 1.3 0.1
v 0.1 1.3 0.1
v -0.1 1.3 0
v -2.98023e-08 1.3 0
v -0.1 1.3 -0.1
v 0.1 1.3 -0.1

# faces
f 3/2/1 2/2/1 1/2/1
f 4/2/1 2/2/1 3/2/1
f 7/2/1 6/2/1 5/2/1
f 8/2/1 6/2/1 7/2/1
f 9/3/1 8/3/1 7/3/1
f 10/3/1 8/3/1 9/3/1
f 11/2/1 10/2/1 9/2/1
f 12/2/1 10/2/1 11/2/1
f 14/3/1 12/3/1 11/3/1
f 15/2/1 14/2/1 13/2/1
f 16/2/1 14/2/1 15/2/1
f 17/3/1 12/3/1 14/3/1
f 17/2/1 14/2/1 16/2/1
f 18/3/1 12/3/1 17/3/1
f 19/3/1 16/3/1 15/3/1
f 20/2/1 17/2/1 16/2/1
f 20/3/1 16/3/1 19/3/1
f 20/2/1 18/2/1 17/2/1
f 21/2/1 18/2/1 20/2/1
f 23/2/1 18/2/1 21/2/1
f 24/2/1 18/2/1 23/2/1
f 25/2/1 23/2/1 22/2/1
f 26/2/1 23/2/1 25/2/1
f 30/2/1 28/2/1 27/2/1
f 31/2/1 28/2/1 30/2/1
f 32/2/1 28/2/1 31/2/1
f 33/4/1 29/4/1 28/4/1
f 33/2/1 28/2/1 32/2/1
f 34/4/1 29/4/1 33/4/1
f 35/1/1 31/1/1 30/1/1
f 36/3/1 32/3/1 31/3/1
f 36/1/1 31/1/1 35/1/1
f 37/2/1 33/2/1 32/2/1
f 37/3/1 32/3/1 36/3/1
f 37/2/1 34/2/1 33/2/1
f 38/2/1 34/2/1 37/2/1
f 39/2/1 34/2/1 38/2/1
f 40/2/1 36/2/1 35/2/1
f 40/2/1 37/2/1 36/2/1
f 40/2/1 38/2/1 37/2/1
f 41/3/1 39/3/1 38/3/1
f 41/2/1 38/2/1 40/2/1
f 42/3/1 39/3/1 41/3/1
f 45/2/1 44/2/1 43/2/1
f 46/2/1 44/2/1 45/2/1
f 53/2/1 48/2/1 47/2/1
f 54/2/1 48/2/1 53/2/1
f 55/2/1 50/2/1 49/2/1
f 56/2/1 50/2/1 55/2/1
f 57/2/1 52/2/1 51/2/1
f 58/2/1 52/2/1 57/2/1
f 59/2/1 55/2/1 54/2/1
f 60/2/1 55/2/1 59/2/1
f 64/3/1 62/3/1 61/3/1
f 65/2/1 63/2/1 62/2/1
f 65/3/1 62/3/1 64/3/1
f 66/2/1 63/2/1 65/2/1
f 69/2/1 68/2/1 67/2/1
f 70/2/1 68/2/1 69/2/1
f 71/4/1 70/4/1 69/4/1
f 72/4/1 70/4/1 71/4/1
f 75/2/1 74/2/1 73/2/1
f 76/2/1 74/2/1 75/2/1
f 77/2/2 78/2/2 79/2/2
f 79/2/2 78/2/2 80/2/2
f 81/2/2 82/2/2 83/2/2
f 83/2/2 82/2/2 84/2/2
f 83/3/2 84/3/2 85/3/2
f 85/3/2 84/3/2 86/3/2
f 85/2/2 86/2/2 87/2/2
f 87/2/2 86/2/2 88/2/2
f 89/2/2 90/2/2 91/2/2
f 91/2/2 90/2/2 92/2/2
f 93/2/2 94/2/2 99/2/2
f 99/2/2 94/2/2 100/2/2
f 95/2/2 96/2/2 101/2/2
f 101/2/2 96/2/2 102/2/2
f 97/2/2 98/2/2 103/2/2
f 103/2/2 98/2/2 104/2/2
f 100/2/2 101/2/2 105/2/2
f 105/2/2 101/2/2 106/2/2
f 107/2/2 108/2/2 109/2/2
f 109/2/2 108/2/2 110/2/2
f 111/2/2 112/2/2 113/2/2
f 113/2/2 112/2/2 114/2/2
f 113/4/2 114/4/2 115/4/2
f 115/4/2 114/4/2 116/4/2
f 115/2/2 116/2/2 117/2/2
f 117/2/2 116/2/2 118/2/2
f 117/3/2 118/3/2 120/3/2
f 118/2/2 119/2/2 121/2/2
f 120/3/2 118/3/2 121/3/2
f 120/2/2 121/2/2 122/2/2
f 121/2/2 119/2/2 123/2/2
f 122/2/2 121/2/2 123/2/2
f 123/2/2 119/2/2 124/2/2
f 124/2/2 119/2/2 126/2/2
f 126/2/2 119/2/2 127/2/2
f 125/2/2 126/2/2 128/2/2
f 128/2/2 126/2/2 129/2/2
f 130/2/2 131/2/2 132/2/2
f 132/2/2 131/2/2 133/2/2
f 133/2/2 131/2/2 134/2/2
f 134/2/2 131/2/2 135/2/2
f 132/1/2 133/1/2 136/1/2
f 133/2/2 134/2/2 137/2/2
f 136/1/2 133/1/2 137/1/2
f 134/3/2 135/3/2 138/3/2
f 137/2/2 134/2/2 138/2/2
f 135/2/2 131/2/2 139/2/2
f 138/3/2 135/3/2 139/3/2
f 137/2/2 138/2/2 140/2/2
f 136/2/2 137/2/2 140/2/2
f 138/2/2 139/2/2 140/2/2
f 139/2/2 131/2/2 141/2/2
f 140/2/2 139/2/2 141/2/2
f 142/2/2 143/2/2 145/2/2
f 143/3/2 144/3/2 146/3/2
f 145/2/2 143/2/2 146/2/2
f 146/3/2 144/3/2 147/3/2
f 150/2/3 149/2/3 148/2/3
f 151/2/3 149/2/3 150/2/3
f 157/2/3 153/2/3 152/2/3
f 158/1/3 154/1/3 153/1/3
f 158/2/3 153/2/3 157/2/3
f 159/2/3 155/2/3 154/2/3
f 159/1/3 154/1/3 158/1/3
f 160/2/3 158/2/3 157/2/3
f 160/2/3 157/2/3 156/2/3
f 160/2/3 159/2/3 158/2/3
f 161/2/3 159/2/3 160/2/3
f 162/2/3 160/2/3 156/2/3
f 163/3/3 161/3/3 160/3/3
f 163/2/3 160/2/3 162/2/3
f 164/2/3 159/2/3 161/2/3
f 164/3/3 161/3/3 163/3/3
f 165/2/3 155/2/3 159/2/3
f 165/2/3 159/2/3 164/2/3
f 168/2/3 164/2/3 163/2/3
f 169/1/3 165/1/3 164/1/3
f 169/2/3 164/2/3 168/2/3
f 170/2/3 155/2/3 165/2/3
f 170/1/3 165/1/3 169/1/3
f 171/2/3 155/2/3 170/2/3
f 172/2/3 167/2/3 166/2/3
f 173/2/3 167/2/3 172/2/3
f 176/3/3 175/3/3 174/3/3
f 177/3/3 175/3/3 176/3/3
f 178/2/3 177/2/3 176/2/3
f 179/2/3 177/2/3 178/2/3
f 185/2/3 181/2/3 180/2/3
f 186/3/3 182/3/3 181/3/3
f 186/2/3 181/2/3 185/2/3
f 187/2/3 183/2/3 182/2/3
f 187/3/3 182/3/3 186/3/3
f 188/2/3 183/2/3 187/2/3
f 190/2/3 185/2/3 184/2/3
f 191/4/3 186/4/3 185/4/3
f 191/2/3 185/2/3 190/2/3
f 192/2/3 189/2/3 188/2/3
f 192/4/3 186/4/3 191/4/3
f 192/2/3 187/2/3 186/2/3
f 192/2/3 188/2/3 187/2/3
f 193/2/3 189/2/3 192/2/3
f 194/2/3 189/2/3 193/2/3
f 197/3/3 191/3/3 190/3/3
f 198/2/3 192/2/3 191/2/3
f 198/2/3 193/2/3 192/2/3
f 198/3/3 191/3/3 197/3/3
f 199/2/3 193/2/3 198/2/3
f 200/3/3 194/3/3 193/3/3
f 200/2/3 193/2/3 199/2/3
f 201/2/3 189/2/3 194/2/3
f 201/3/3 194/3/3 200/3/3
f 202/2/3 189/2/3 201/2/3
f 203/2/3 196/2/3 195/2/3
f 204/4/3 197/4/3 196/4/3
f 204/2/3 196/2/3 203/2/3
f 205/2/3 198/2/3 197/2/3
f 205/4/3 197/4/3 204/4/3
f 206/3/3 199/3/3 198/3/3
f 206/2/3 198/2/3 205/2/3
f 207/2/3 200/2/3 199/2/3
f 207/3/3 199/3/3 206/3/3
f 207/2/3 201/2/3 200/2/3
f 208/2/3 201/2/3 207/2/3
f 209/2/3 201/2/3 208/2/3
f 212/2/3 211/2/3 210/2/3
f 213/2/3 211/2/3 212/2/3
f 216/2/3 214/2/3 213/2/3
f 217/2/3 214/2/3 216/2/3
f 218/2/3 216/2/3 215/2/3
f 219/2/3 216/2/3 218/2/3
f 225/2/3 221/2/3 220/2/3
f 226/3/3 222/3/3 221/3/3
f 226/2/3 221/2/3 225/2/3
f 227/2/3 223/2/3 222/2/3
f 227/3/3 222/3/3 226/3/3
f 228/3/3 224/3/3 223/3/3
f 228/2/3 223/2/3 227/2/3
f 229/3/3 224/3/3 228/3/3
f 230/2/4 231/2/4 232/2/4
f 232/2/4 231/2/4 233/2/4
f 234/2/4 235/2/4 240/2/4
f 240/2/4 235/2/4 241/2/4
f 236/2/4 237/2/4 242/2/4
f 237/4/4 238/4/4 243/4/4
f 242/2/4 237/2/4 243/2/4
f 238/2/4 239/2/4 244/2/4
f 243/4/4 238/4/4 244/4/4
f 244/2/4 239/2/4 245/2/4
f 246/2/4 247/2/4 248/2/4
f 248/2/4 247/2/4 249/2/4
f 249/2/4 250/2/4 255/2/4
f 255/2/4 250/2/4 256/2/4
f 251/4/4 252/4/4 257/4/4
f 252/2/4 253/2/4 258/2/4
f 257/4/4 252/4/4 258/4/4
f 253/3/4 254/3/4 259/3/4
f 258/2/4 253/2/4 259/2/4
f 259/3/4 254/3/4 260/3/4
f 257/2/4 258/2/4 261/2/4
f 256/2/4 257/2/4 261/2/4
f 259/2/4 260/2/4 261/2/4
f 258/2/4 259/2/4 261/2/4
f 261/2/4 260/2/4 262/2/4
f 256/2/4 261/2/4 264/2/4
f 261/3/4 262/3/4 265/3/4
f 264/2/4 261/2/4 265/2/4
f 262/2/4 260/2/4 266/2/4
f 265/3/4 262/3/4 266/3/4
f 263/2/4 264/2/4 268/2/4
f 268/2/4 264/2/4 269/2/4
f 265/2/4 266/2/4 270/2/4
f 266/2/4 260/2/4 271/2/4
f 270/2/4 266/2/4 271/2/4
f 267/3/4 268/3/4 272/3/4
f 272/3/4 268/3/4 273/3/4
f 274/2/4 275/2/4 280/2/4
f 275/3/4 276/3/4 281/3/4
f 280/2/4 275/2/4 281/2/4
f 276/2/4 277/2/4 282/2/4
f 281/3/4 276/3/4 282/3/4
f 277/3/4 278/3/4 283/3/4
f 282/2/4 277/2/4 283/2/4
f 278/2/4 279/2/4 284/2/4
f 283/3/4 278/3/4 284/3/4
f 284/2/4 279/2/4 285/2/4
f 285/2/4 286/2/4 287/2/4
f 284/2/4 285/2/4 287/2/4
f 283/2/4 284/2/4 287/2/4
f 287/2/4 286/2/4 288/2/4
f 283/2/4 287/2/4 289/2/4
f 289/2/4 287/2/4 290/2/4
f 287/3/4 288/3/4 291/3/4
f 290/2/4 287/2/4 291/2/4
f 288/2/4 286/2/4 292/2/4
f 291/3/4 288/3/4 292/3/4
f 292/2/4 286/2/4 293/2/4
f 290/2/4 291/2/4 294/2/4
f 291/2/4 292/2/4 294/2/4
f 294/2/4 292/2/4 295/2/4
f 298/2/5 297/2/5 296/2/5
f 299/2/5 297/2/5 298/2/5
f 302/2/5 301/2/5 300/2/5
f 303/2/5 301/2/5 302/2/5
f 307/2/5 305/2/5 304/2/5
f 307/3/5 306/3/5 305/3/5
f 308/3/5 306/3/5 307/3/5
f 309/2/5 307/2/5 304/2/5
f 309/2/5 308/2/5 307/2/5
f 310/2/5 308/2/5 309/2/5
f 311/2/5 308/2/5 310/2/5
f 316/2/5 313/2/5 312/2/5
f 317/2/5 313/2/5 316/2/5
f 318/2/5 315/2/5 314/2/5
f 319/2/5 315/2/5 318/2/5
f 324/2/5 321/2/5 320/2/5
f 325/2/5 323/2/5 322/2/5
f 326/2/5 324/2/5 320/2/5
f 327/2/5 323/2/5 325/2/5
f 328/2/5 323/2/5 327/2/5
f 329/2/5 326/2/5 320/2/5
f 330/2/5 326/2/5 329/2/5
f 331/3/5 328/3/5 327/3/5
f 332/3/5 328/3/5 331/3/5
f 335/2/5 334/2/5 333/2/5
f 336/2/5 334/2/5 335/2/5
f 341/2/5 338/2/5 337/2/5
f 342/2/5 340/2/5 339/2/5
f 343/2/5 341/2/5 337/2/5
f 343/2/5 342/2/5 341/2/5
f 344/2/5 342/2/5 343/2/5
f 345/2/5 340/2/5 342/2/5
f 345/2/5 342/2/5 344/2/5
f 346/4/5 344/4/5 343/4/5
f 347/4/5 344/4/5 346/4/5
f 348/2/5 340/2/5 345/2/5
f 349/2/5 340/2/5 348/2/5
f 350/2/6 351/2/6 354/2/6
f 352/2/6 353/2/6 357/2/6
f 354/2/6 355/2/6 358/2/6
f 350/2/6 354/2/6 358/2/6
f 358/2/6 355/2/6 359/2/6
f 356/2/6 357/2/6 360/2/6
f 357/2/6 353/2/6 361/2/6
f 360/2/6 357/2/6 361/2/6
f 361/2/6 353/2/6 362/2/6
f 350/2/6 358/2/6 363/2/6
f 363/2/6 358/2/6 364/2/6
f 361/3/6 362/3/6 367/3/6
f 367/3/6 362/3/6 368/3/6
f 364/2/6 365/2/6 369/2/6
f 369/2/6 365/2/6 370/2/6
f 366/2/6 367/2/6 371/2/6
f 371/2/6 367/2/6 372/2/6
f 373/2/6 374/2/6 376/2/6
f 376/2/6 374/2/6 377/2/6
f 375/2/6 376/2/6 379/2/6
f 379/2/6 376/2/6 380/2/6
f 377/2/6 378/2/6 381/2/6
f 381/2/6 378/2/6 382/2/6
f 380/2/6 381/2/6 383/2/6
f 383/2/6 381/2/6 384/2/6
f 385/2/6 386/2/6 387/2/6
f 387/2/6 386/2/6 388/2/6
f 388/2/6 386/2/6 389/2/6
f 385/2/6 387/2/6 390/2/6
f 385/2/6 390/2/6 391/2/6
f 391/2/6 390/2/6 392/2/6
f 389/2/6 386/2/6 393/2/6
f 391/3/6 392/3/6 394/3/6
f 392/2/6 393/2/6 395/2/6
f 394/3/6 392/3/6 395/3/6
f 393/2/6 386/2/6 396/2/6
f 395/2/6 393/2/6 396/2/6
f 397/3/6 398/3/6 400/3/6
f 398/2/6 399/2/6 401/2/6
f 400/3/6 398/3/6 401/3/6
f 400/2/6 401/2/6 402/2/6
f 401/2/6 399/2/6 403/2/6
f 402/2/6 401/2/6 403/2/6
